<?xml version="1.0" encoding="utf-8"?>
<!-- Generator: Adobe Illustrator 28.0.0, SVG Export Plug-In . SVG Version: 6.00 Build 0)  -->
<svg version="1.1" id="Layer_1" xmlns="http://www.w3.org/2000/svg" xmlns:xlink="http://www.w3.org/1999/xlink" x="0px" y="0px"
	 viewBox="0 0 1280 769" style="enable-background:new 0 0 1280 769;" xml:space="preserve">
<style type="text/css">
	.st0{fill:#2E80A2;}
	.st1{fill:#1B2553;}
	.st2{fill:#1B4277;}
	.st3{fill:#FFFFFF;}
</style>
<g>
	<g>
		<polygon class="st1" points="534.12,-346.35 512.85,-346.35 478.02,-305.15 478.02,-346.35 461.11,-346.35 461.11,-253.68 
			478.02,-253.68 478.02,-279.68 490.46,-294.48 515.34,-253.68 535.24,-253.68 501.98,-308.25 		"/>
		<rect x="544.2" y="-321.34" class="st1" width="16.29" height="67.66"/>
		<rect x="544.2" y="-346.35" class="st1" width="16.29" height="17.41"/>
		<path class="st1" d="M623.24-319.6c-3.86-2.15-8.27-3.23-13.25-3.23c-4.81,0-9.02,1.06-12.62,3.17c-2.78,1.63-4.96,3.85-6.53,6.64
			v-8.32h-15.3v67.66h16.29v-39.68c0-2.99,0.58-5.55,1.74-7.71c1.16-2.16,2.78-3.83,4.85-5.04c2.07-1.2,4.44-1.8,7.09-1.8
			c2.74,0,5.12,0.6,7.15,1.8c2.03,1.2,3.63,2.88,4.79,5.04c1.16,2.16,1.74,4.73,1.74,7.71v39.68h16.29v-43.53
			c0-5.06-1.08-9.51-3.23-13.37C630.1-314.44,627.1-317.45,623.24-319.6z"/>
		<path class="st1" d="M699.8-313.55c-2.13-2.53-4.59-4.57-7.4-6.11c-3.86-2.11-8.31-3.17-13.37-3.17c-6.22,0-11.78,1.43-16.67,4.29
			c-4.89,2.86-8.75,6.78-11.57,11.75c-2.82,4.98-4.23,10.66-4.23,17.04c0,6.3,1.41,11.98,4.23,17.04
			c2.82,5.06,6.72,9.04,11.69,11.94c4.98,2.9,10.61,4.35,16.92,4.35c4.98,0,9.41-1.04,13.31-3.11c2.36-1.26,4.43-2.89,6.22-4.88
			v7.37c0,3.32-0.7,6.16-2.11,8.52c-1.41,2.36-3.38,4.17-5.91,5.41c-2.53,1.24-5.45,1.87-8.77,1.87c-4.31,0-7.94-0.98-10.88-2.92
			c-2.94-1.95-4.91-4.5-5.91-7.65l-15.17,5.72c1.41,3.98,3.67,7.44,6.78,10.39c3.11,2.94,6.82,5.24,11.13,6.9
			c4.31,1.66,9,2.49,14.06,2.49c6.47,0,12.17-1.33,17.1-3.98c4.93-2.66,8.83-6.3,11.69-10.95c2.86-4.64,4.29-9.91,4.29-15.8v-64.31
			H699.8V-313.55z M696.69-280.17c-1.49,2.74-3.55,4.87-6.16,6.41c-2.61,1.54-5.66,2.3-9.14,2.3c-3.48,0-6.57-0.79-9.27-2.36
			c-2.7-1.57-4.81-3.73-6.34-6.47c-1.53-2.74-2.3-5.85-2.3-9.33s0.77-6.61,2.3-9.39c1.53-2.78,3.67-4.95,6.41-6.53
			c2.74-1.57,5.8-2.36,9.2-2.36c3.4,0,6.41,0.79,9.02,2.36c2.61,1.58,4.68,3.75,6.22,6.53c1.53,2.78,2.3,5.91,2.3,9.39
			C698.93-286.06,698.18-282.91,696.69-280.17z"/>
		<path class="st0" d="M757.25-328.31c4.44-2.74,9.56-4.1,15.36-4.1c5.89,0,10.9,1.51,15.05,4.54c4.15,3.03,7.09,6.86,8.83,11.51
			l15.17-7.09c-1.58-4.39-4.19-8.44-7.84-12.13c-3.65-3.69-8.11-6.65-13.37-8.89c-5.27-2.24-11.22-3.36-17.85-3.36
			c-6.64,0-12.77,1.18-18.41,3.54c-5.64,2.36-10.55,5.68-14.74,9.95c-4.19,4.27-7.42,9.33-9.7,15.17
			c-2.28,5.85-3.42,12.21-3.42,19.09c0,6.88,1.16,13.23,3.48,19.03c2.32,5.81,5.58,10.86,9.76,15.18
			c4.19,4.31,9.08,7.67,14.68,10.07c5.6,2.4,11.71,3.61,18.35,3.61c6.63,0,12.58-1.12,17.85-3.36c5.26-2.24,9.72-5.2,13.37-8.89
			c3.65-3.69,6.26-7.73,7.84-12.13l-15.17-7.09c-1.74,4.64-4.69,8.48-8.83,11.51c-4.15,3.03-9.16,4.54-15.05,4.54
			c-5.81,0-10.93-1.37-15.36-4.1c-4.44-2.74-7.88-6.53-10.32-11.38c-2.45-4.85-3.67-10.51-3.67-16.98c0-6.47,1.22-12.11,3.67-16.92
			C749.37-321.8,752.81-325.57,757.25-328.31z"/>
		<path class="st0" d="M866.39-319.79c-4.23-2.03-9.12-3.05-14.68-3.05c-4.56,0-8.79,0.75-12.69,2.24
			c-3.9,1.49-7.28,3.54-10.14,6.16c-2.86,2.61-4.96,5.7-6.28,9.27l13.31,6.47c1.24-3.07,3.21-5.53,5.91-7.4
			c2.69-1.87,5.78-2.8,9.27-2.8c3.73,0,6.74,0.98,9.02,2.92c2.28,1.95,3.42,4.38,3.42,7.28v2.19l-20.15,3.28
			c-5.31,0.83-9.7,2.24-13.18,4.23c-3.48,1.99-6.05,4.46-7.71,7.4c-1.66,2.94-2.49,6.28-2.49,10.01c0,3.9,0.95,7.32,2.86,10.26
			c1.91,2.94,4.6,5.2,8.09,6.78c3.48,1.57,7.59,2.36,12.31,2.36c3.73,0,7.13-0.52,10.2-1.55c3.07-1.04,5.8-2.53,8.21-4.48
			c0.97-0.78,1.88-1.65,2.74-2.58v7.12h15.42v-45.03c0-4.81-1.18-9.02-3.55-12.62C873.92-314.94,870.62-317.76,866.39-319.79z
			 M861.36-272.83c-1.45,2.57-3.48,4.58-6.09,6.03c-2.61,1.45-5.62,2.18-9.02,2.18c-2.65,0-4.87-0.68-6.65-2.05
			c-1.78-1.37-2.67-3.21-2.67-5.54c0-2.4,0.79-4.35,2.36-5.85c1.57-1.49,3.98-2.53,7.21-3.11l17.04-2.9v2.77
			C863.53-278.22,862.81-275.4,861.36-272.83z"/>
		<rect x="894.88" y="-347.84" class="st0" width="16.29" height="94.16"/>
		<rect x="926.22" y="-347.84" class="st0" width="16.29" height="94.16"/>
		<path class="st0" d="M1012.67-313.01c-2.82-3.07-6.24-5.47-10.26-7.21c-4.02-1.74-8.69-2.61-13.99-2.61c-6.3,0-12,1.54-17.1,4.6
			c-5.1,3.07-9.12,7.24-12.07,12.5c-2.94,5.27-4.42,11.3-4.42,18.1c0,6.55,1.45,12.52,4.35,17.91c2.9,5.39,6.97,9.66,12.19,12.81
			c5.22,3.15,11.32,4.73,18.28,4.73c4.64,0,8.89-0.7,12.75-2.11c3.86-1.41,7.19-3.36,10.01-5.85c2.82-2.49,4.89-5.35,6.22-8.58
			l-13.18-6.47c-1.49,2.65-3.55,4.77-6.16,6.34c-2.61,1.58-5.78,2.36-9.51,2.36c-3.73,0-7.03-0.87-9.89-2.61
			c-2.86-1.74-5.02-4.21-6.47-7.4c-0.89-1.95-1.44-4.09-1.66-6.41h48.74c0.33-0.91,0.56-1.99,0.68-3.23
			c0.12-1.24,0.19-2.44,0.19-3.61c0-4.56-0.75-8.81-2.24-12.75C1017.65-306.44,1015.49-309.94,1012.67-313.01z M979.34-306.85
			c2.65-1.7,5.68-2.55,9.08-2.55c3.56,0,6.61,0.87,9.14,2.61c2.53,1.74,4.35,4.11,5.47,7.09c0.51,1.36,0.82,2.82,0.94,4.35h-31.86
			c0.27-1.45,0.67-2.79,1.19-4.04C974.67-302.67,976.68-305.15,979.34-306.85z"/>
		<path class="st0" d="M1067.27-322.09c-4.73,0-8.77,1-12.13,2.99c-2.58,1.53-4.63,3.97-6.16,7.31v-9.55h-15.3v67.66h16.29v-37.69
			c0-5.14,1.41-9.14,4.23-12c2.82-2.86,6.55-4.29,11.19-4.29h5.85v-14.43H1067.27z"/>
	</g>
	<g>
		<g>
			<g>
				<g>
					<path class="st1" d="M250.28-327.38c-2.73,3.87-6.2,5.82-10.38,5.82c-0.63,0-1.28-0.04-1.95-0.13
						c-0.99-7.3-3.24-18.03-8.3-31.42C239.38-340.69,244.77-332.15,250.28-327.38z"/>
					<path class="st1" d="M293.27-335.35v0.01c-2.82,6.02-5.76,9.74-8.79,9.74c-2.1,0-5.03-1.81-8.87-7.99
						c4.27-7.91,7.68-19.73,10.92-34.1C287.83-357.91,289.97-345.37,293.27-335.35z"/>
					<path class="st1" d="M348.9-333.62c-3.84,6.21-6.77,8.02-8.88,8.02c-3.03,0-5.96-3.71-8.78-9.72
						c3.32-10.01,5.46-22.57,6.76-32.38C341.25-353.35,344.64-341.53,348.9-333.62z"/>
					<path class="st1" d="M394.87-353.11c-5.06,13.39-7.3,24.12-8.3,31.42c-0.66,0.08-1.31,0.13-1.96,0.13
						c-4.18,0-7.64-1.95-10.38-5.81C379.76-332.13,385.14-340.68,394.87-353.11z"/>
				</g>
				<g>
					<path class="st2" d="M364.47-364.78c-26.2,77.69-37.94,33.15-52.21-30.34c0,0.01-0.01,0.03-0.01,0.04
						c0-0.01-0.01-0.03-0.01-0.04c-14.27,63.49-26.01,108.03-52.21,30.34c-1.17,62.83-28.41,46.63-47.95,31.75
						c1.24,1.9,2.42,3.89,3.56,5.93c17.83,14.2,44.67,22.78,45.82-26.53c21.68,64.59,40.89,28.41,50.7-27.35
						c0.03-0.13,0.06-0.25,0.09-0.38c0.03,0.13,0.06,0.25,0.09,0.38c9.82,55.76,29.02,91.94,50.7,27.35
						c1.15,49.31,27.99,40.73,45.82,26.53c1.14-2.04,2.32-4.03,3.56-5.93C392.89-318.15,365.64-301.95,364.47-364.78z"/>
				</g>
			</g>
		</g>
	</g>
</g>
</svg>