<?xml version="1.0" encoding="utf-8"?>
<!-- Generator: Adobe Illustrator 28.0.0, SVG Export Plug-In . SVG Version: 6.00 Build 0)  -->
<svg version="1.1" id="Layer_1" xmlns="http://www.w3.org/2000/svg" xmlns:xlink="http://www.w3.org/1999/xlink" x="0px" y="0px"
	 viewBox="0 0 1280 769" style="enable-background:new 0 0 1280 769;" xml:space="preserve">
<style type="text/css">
	.st0{fill:#2E80A2;}
	.st1{fill:#1B2553;}
	.st2{fill:#1B4277;}
	.st3{fill:#FFFFFF;}
</style>
<polygon class="st0" points="-292.46,389.24 -331.25,455.11 -331.25,431.63 -308.04,384.19 "/>
<polygon class="st0" points="-322.97,381.17 -293.08,372.96 -284.87,402.84 "/>
<polygon class="st0" points="-331.25,455.11 -501.43,431.63 -501.43,431.63 -331.25,431.63 "/>
<g>
	<g>
		<polygon class="st1" points="534.12,-346.35 512.85,-346.35 478.02,-305.15 478.02,-346.35 461.11,-346.35 461.11,-253.68 
			478.02,-253.68 478.02,-279.68 490.46,-294.48 515.34,-253.68 535.24,-253.68 501.98,-308.25 		"/>
		<rect x="544.2" y="-321.34" class="st1" width="16.29" height="67.66"/>
		<rect x="544.2" y="-346.35" class="st1" width="16.29" height="17.41"/>
		<path class="st1" d="M623.24-319.6c-3.86-2.15-8.27-3.23-13.25-3.23c-4.81,0-9.02,1.06-12.62,3.17c-2.78,1.63-4.96,3.85-6.53,6.64
			v-8.32h-15.3v67.66h16.29v-39.68c0-2.99,0.58-5.55,1.74-7.71c1.16-2.16,2.78-3.83,4.85-5.04c2.07-1.2,4.44-1.8,7.09-1.8
			c2.74,0,5.12,0.6,7.15,1.8c2.03,1.2,3.63,2.88,4.79,5.04c1.16,2.16,1.74,4.73,1.74,7.71v39.68h16.29v-43.53
			c0-5.06-1.08-9.51-3.23-13.37C630.1-314.44,627.1-317.45,623.24-319.6z"/>
		<path class="st1" d="M699.8-313.55c-2.13-2.53-4.59-4.57-7.4-6.11c-3.86-2.11-8.31-3.17-13.37-3.17c-6.22,0-11.78,1.43-16.67,4.29
			c-4.89,2.86-8.75,6.78-11.57,11.75c-2.82,4.98-4.23,10.66-4.23,17.04c0,6.3,1.41,11.98,4.23,17.04
			c2.82,5.06,6.72,9.04,11.69,11.94c4.98,2.9,10.61,4.35,16.92,4.35c4.98,0,9.41-1.04,13.31-3.11c2.36-1.26,4.43-2.89,6.22-4.88
			v7.37c0,3.32-0.7,6.16-2.11,8.52c-1.41,2.36-3.38,4.17-5.91,5.41c-2.53,1.24-5.45,1.87-8.77,1.87c-4.31,0-7.94-0.98-10.88-2.92
			c-2.94-1.95-4.91-4.5-5.91-7.65l-15.17,5.72c1.41,3.98,3.67,7.44,6.78,10.39c3.11,2.94,6.82,5.24,11.13,6.9
			c4.31,1.66,9,2.49,14.06,2.49c6.47,0,12.17-1.33,17.1-3.98c4.93-2.66,8.83-6.3,11.69-10.95c2.86-4.64,4.29-9.91,4.29-15.8v-64.31
			H699.8V-313.55z M696.69-280.17c-1.49,2.74-3.55,4.87-6.16,6.41c-2.61,1.54-5.66,2.3-9.14,2.3c-3.48,0-6.57-0.79-9.27-2.36
			c-2.7-1.57-4.81-3.73-6.34-6.47c-1.53-2.74-2.3-5.85-2.3-9.33s0.77-6.61,2.3-9.39c1.53-2.78,3.67-4.95,6.41-6.53
			c2.74-1.57,5.8-2.36,9.2-2.36c3.4,0,6.41,0.79,9.02,2.36c2.61,1.58,4.68,3.75,6.22,6.53c1.53,2.78,2.3,5.91,2.3,9.39
			C698.93-286.06,698.18-282.91,696.69-280.17z"/>
		<path class="st0" d="M757.25-328.31c4.44-2.74,9.56-4.1,15.36-4.1c5.89,0,10.9,1.51,15.05,4.54c4.15,3.03,7.09,6.86,8.83,11.51
			l15.17-7.09c-1.58-4.39-4.19-8.44-7.84-12.13c-3.65-3.69-8.11-6.65-13.37-8.89c-5.27-2.24-11.22-3.36-17.85-3.36
			c-6.64,0-12.77,1.18-18.41,3.54c-5.64,2.36-10.55,5.68-14.74,9.95c-4.19,4.27-7.42,9.33-9.7,15.17
			c-2.28,5.85-3.42,12.21-3.42,19.09c0,6.88,1.16,13.23,3.48,19.03c2.32,5.81,5.58,10.86,9.76,15.18
			c4.19,4.31,9.08,7.67,14.68,10.07c5.6,2.4,11.71,3.61,18.35,3.61c6.63,0,12.58-1.12,17.85-3.36c5.26-2.24,9.72-5.2,13.37-8.89
			c3.65-3.69,6.26-7.73,7.84-12.13l-15.17-7.09c-1.74,4.64-4.69,8.48-8.83,11.51c-4.15,3.03-9.16,4.54-15.05,4.54
			c-5.81,0-10.93-1.37-15.36-4.1c-4.44-2.74-7.88-6.53-10.32-11.38c-2.45-4.85-3.67-10.51-3.67-16.98c0-6.47,1.22-12.11,3.67-16.92
			C749.37-321.8,752.81-325.57,757.25-328.31z"/>
		<path class="st0" d="M866.39-319.79c-4.23-2.03-9.12-3.05-14.68-3.05c-4.56,0-8.79,0.75-12.69,2.24
			c-3.9,1.49-7.28,3.54-10.14,6.16c-2.86,2.61-4.96,5.7-6.28,9.27l13.31,6.47c1.24-3.07,3.21-5.53,5.91-7.4
			c2.69-1.87,5.78-2.8,9.27-2.8c3.73,0,6.74,0.98,9.02,2.92c2.28,1.95,3.42,4.38,3.42,7.28v2.19l-20.15,3.28
			c-5.31,0.83-9.7,2.24-13.18,4.23c-3.48,1.99-6.05,4.46-7.71,7.4c-1.66,2.94-2.49,6.28-2.49,10.01c0,3.9,0.95,7.32,2.86,10.26
			c1.91,2.94,4.6,5.2,8.09,6.78c3.48,1.57,7.59,2.36,12.31,2.36c3.73,0,7.13-0.52,10.2-1.55c3.07-1.04,5.8-2.53,8.21-4.48
			c0.97-0.78,1.88-1.65,2.74-2.58v7.12h15.42v-45.03c0-4.81-1.18-9.02-3.55-12.62C873.92-314.94,870.62-317.76,866.39-319.79z
			 M861.36-272.83c-1.45,2.57-3.48,4.58-6.09,6.03c-2.61,1.45-5.62,2.18-9.02,2.18c-2.65,0-4.87-0.68-6.65-2.05
			c-1.78-1.37-2.67-3.21-2.67-5.54c0-2.4,0.79-4.35,2.36-5.85c1.57-1.49,3.98-2.53,7.21-3.11l17.04-2.9v2.77
			C863.53-278.22,862.81-275.4,861.36-272.83z"/>
		<rect x="894.88" y="-347.84" class="st0" width="16.29" height="94.16"/>
		<rect x="926.22" y="-347.84" class="st0" width="16.29" height="94.16"/>
		<path class="st0" d="M1012.67-313.01c-2.82-3.07-6.24-5.47-10.26-7.21c-4.02-1.74-8.69-2.61-13.99-2.61c-6.3,0-12,1.54-17.1,4.6
			c-5.1,3.07-9.12,7.24-12.07,12.5c-2.94,5.27-4.42,11.3-4.42,18.1c0,6.55,1.45,12.52,4.35,17.91c2.9,5.39,6.97,9.66,12.19,12.81
			c5.22,3.15,11.32,4.73,18.28,4.73c4.64,0,8.89-0.7,12.75-2.11c3.86-1.41,7.19-3.36,10.01-5.85c2.82-2.49,4.89-5.35,6.22-8.58
			l-13.18-6.47c-1.49,2.65-3.55,4.77-6.16,6.34c-2.61,1.58-5.78,2.36-9.51,2.36c-3.73,0-7.03-0.87-9.89-2.61
			c-2.86-1.74-5.02-4.21-6.47-7.4c-0.89-1.95-1.44-4.09-1.66-6.41h48.74c0.33-0.91,0.56-1.99,0.68-3.23
			c0.12-1.24,0.19-2.44,0.19-3.61c0-4.56-0.75-8.81-2.24-12.75C1017.65-306.44,1015.49-309.94,1012.67-313.01z M979.34-306.85
			c2.65-1.7,5.68-2.55,9.08-2.55c3.56,0,6.61,0.87,9.14,2.61c2.53,1.74,4.35,4.11,5.47,7.09c0.51,1.36,0.82,2.82,0.94,4.35h-31.86
			c0.27-1.45,0.67-2.79,1.19-4.04C974.67-302.67,976.68-305.15,979.34-306.85z"/>
		<path class="st0" d="M1067.27-322.09c-4.73,0-8.77,1-12.13,2.99c-2.58,1.53-4.63,3.97-6.16,7.31v-9.55h-15.3v67.66h16.29v-37.69
			c0-5.14,1.41-9.14,4.23-12c2.82-2.86,6.55-4.29,11.19-4.29h5.85v-14.43H1067.27z"/>
	</g>
	<g>
		<g>
			<g>
				<g>
					<path class="st1" d="M250.28-327.38c-2.73,3.87-6.2,5.82-10.38,5.82c-0.63,0-1.28-0.04-1.95-0.13
						c-0.99-7.3-3.24-18.03-8.3-31.42C239.38-340.69,244.77-332.15,250.28-327.38z"/>
					<path class="st1" d="M293.27-335.35v0.01c-2.82,6.02-5.76,9.74-8.79,9.74c-2.1,0-5.03-1.81-8.87-7.99
						c4.27-7.91,7.68-19.73,10.92-34.1C287.83-357.91,289.97-345.37,293.27-335.35z"/>
					<path class="st1" d="M348.9-333.62c-3.84,6.21-6.77,8.02-8.88,8.02c-3.03,0-5.96-3.71-8.78-9.72
						c3.32-10.01,5.46-22.57,6.76-32.38C341.25-353.35,344.64-341.53,348.9-333.62z"/>
					<path class="st1" d="M394.87-353.11c-5.06,13.39-7.3,24.12-8.3,31.42c-0.66,0.08-1.31,0.13-1.96,0.13
						c-4.18,0-7.64-1.95-10.38-5.81C379.76-332.13,385.14-340.68,394.87-353.11z"/>
				</g>
				<g>
					<path class="st1" d="M389.39-270.72c4.6-15.72,13.32-44.5,20.37-57.73c0.73-1.37,1.45-2.64,2.18-3.81
						c0.15-0.26,0.32-0.52,0.48-0.77c-0.67,0.51-1.36,1.03-2.04,1.53c-0.42,0.32-0.86,0.64-1.3,0.96c-0.26,0.19-0.52,0.38-0.78,0.57
						c-0.02,0.01-0.05,0.04-0.07,0.06c-2.9,2.06-5.9,4.06-8.91,5.73c-0.46,0.26-0.92,0.51-1.39,0.75c-0.09,0.05-0.19,0.09-0.28,0.14
						c-0.45,0.24-0.9,0.46-1.33,0.67c-1.55,0.73-3.08,1.37-4.59,1.88c-0.2,0.06-0.4,0.13-0.6,0.19c-0.19,0.06-0.38,0.12-0.55,0.17
						c-0.29,0.08-0.58,0.17-0.87,0.24c-1.44,0.37-2.87,0.59-4.26,0.66c-0.27,0.01-0.55,0.02-0.83,0.02c-0.17,0-0.34,0-0.51-0.01
						c-0.15,0-0.31-0.01-0.47-0.02c-0.24-0.01-0.47-0.04-0.7-0.06c-0.12,0-0.22-0.02-0.34-0.04c-1.07-0.14-2.12-0.4-3.14-0.79
						c-0.2-0.07-0.4-0.15-0.6-0.25c-0.34-0.15-0.67-0.32-1-0.5c-0.15-0.08-0.29-0.17-0.45-0.26c-0.88-0.53-1.75-1.19-2.57-1.97
						c-0.27-0.27-0.54-0.54-0.81-0.84c-0.93-1.03-1.8-2.23-2.63-3.64c-0.47-0.8-0.92-1.67-1.34-2.62c-0.75-1.65-1.44-3.52-2.05-5.6
						c-0.09-0.29-0.18-0.6-0.26-0.91c-0.86-3.09-1.57-6.64-2.1-10.73c-0.09-0.67-0.18-1.37-0.26-2.09
						c-0.04-0.31-0.06-0.61-0.09-0.93c-0.06-0.53-0.11-1.07-0.17-1.62c-0.02-0.33-0.06-0.67-0.08-1.01
						c-0.07-0.74-0.13-1.51-0.18-2.29c-0.08-1.19-0.15-2.42-0.21-3.68c-0.08-1.75-0.14-3.56-0.18-5.46c-0.6,1.78-1.19,3.5-1.77,5.15
						c-0.02,0.05-0.05,0.11-0.06,0.15c-0.4,1.14-0.8,2.25-1.22,3.34c-0.48,1.33-0.98,2.63-1.45,3.87c-0.58,1.51-1.14,2.95-1.72,4.32
						c-0.27,0.67-0.54,1.33-0.83,1.98c-0.01,0.02-0.02,0.04-0.02,0.06c-0.27,0.65-0.54,1.29-0.83,1.9c-0.5,1.14-1,2.24-1.5,3.28
						c-0.32,0.66-0.63,1.31-0.93,1.92c-0.13,0.27-0.26,0.53-0.4,0.79c-0.66,1.3-1.31,2.5-1.95,3.61c-0.12,0.22-0.25,0.44-0.38,0.65
						c-1.01,1.72-2.01,3.22-2.97,4.48c-0.22,0.31-0.46,0.59-0.68,0.86c-1.32,1.63-2.61,2.82-3.85,3.62
						c-0.12,0.08-0.22,0.15-0.34,0.21c-0.59,0.37-1.19,0.64-1.77,0.8c-0.18,0.06-0.34,0.11-0.52,0.14
						c-0.02,0.01-0.05,0.01-0.07,0.01c-0.19,0.05-0.38,0.07-0.57,0.09h-0.04c-0.2,0.02-0.39,0.04-0.59,0.04
						c-0.17,0-0.34-0.01-0.51-0.02c-0.17-0.01-0.33-0.04-0.5-0.07c-0.29-0.05-0.6-0.13-0.9-0.24c-0.13-0.04-0.25-0.08-0.38-0.14
						c-1.24-0.51-2.44-1.44-3.61-2.76c-0.32-0.34-0.63-0.72-0.93-1.12c-0.15-0.2-0.31-0.41-0.46-0.63
						c-0.31-0.42-0.61-0.88-0.91-1.37c-0.29-0.47-0.6-0.98-0.9-1.51c-0.29-0.52-0.59-1.07-0.88-1.65c-0.59-1.16-1.17-2.39-1.75-3.73
						c-0.29-0.67-0.58-1.36-0.86-2.06c-0.28-0.71-0.57-1.44-0.85-2.19s-0.57-1.52-0.84-2.31c-0.28-0.79-0.57-1.6-0.84-2.44
						c-1.95-5.8-3.83-12.54-5.73-19.93c-0.38-1.5-0.77-3.02-1.14-4.56c-0.19-0.75-0.37-1.53-0.55-2.3
						c-0.25-0.98-0.48-1.96-0.72-2.96c-0.54-2.28-1.09-4.6-1.64-6.96c-0.14-0.59-0.27-1.18-0.4-1.77c-0.44-1.89-0.87-3.79-1.31-5.72
						c-0.39-1.7-0.78-3.43-1.17-5.17c0,0.01-0.01,0.02-0.01,0.05c-0.39,1.72-0.78,3.43-1.16,5.13c-4.67,20.58-9.12,38.8-13.95,50.92
						c-0.05,0.07-0.07,0.14-0.09,0.22c-1.84,4.61-3.75,8.34-5.76,10.95c-0.77,1.01-1.55,1.85-2.35,2.51
						c-0.32,0.28-0.64,0.52-0.97,0.72c-0.15,0.11-0.29,0.2-0.45,0.27c-0.05,0.04-0.09,0.06-0.14,0.08c-0.29,0.17-0.59,0.29-0.88,0.4
						c-0.81,0.29-1.64,0.41-2.49,0.34c-0.15-0.01-0.32-0.04-0.47-0.06c-0.32-0.05-0.64-0.12-0.96-0.24
						c-0.22-0.07-0.44-0.15-0.66-0.25c-0.34-0.14-0.67-0.32-1-0.52c-0.21-0.14-0.44-0.28-0.66-0.44c-0.01,0.01-0.01,0-0.01,0
						c-0.45-0.32-0.9-0.68-1.36-1.1c-0.24-0.2-0.46-0.42-0.7-0.67c-0.29-0.31-0.6-0.63-0.91-0.98c-0.28-0.33-0.58-0.67-0.87-1.05
						c-0.02-0.01-0.05-0.04-0.06-0.07c-0.14-0.19-0.29-0.39-0.45-0.59c-0.15-0.21-0.31-0.42-0.47-0.64
						c-0.27-0.4-0.55-0.81-0.85-1.24c-0.04-0.05-0.07-0.09-0.09-0.15c-0.64-0.97-1.29-2.03-1.95-3.18
						c-1.31-2.31-2.68-5.01-4.08-8.13c-0.35-0.77-0.71-1.57-1.06-2.41c-0.18-0.41-0.35-0.84-0.54-1.26
						c-0.07-0.14-0.13-0.29-0.19-0.45c-0.27-0.67-0.55-1.36-0.85-2.06c-0.39-0.94-0.77-1.91-1.16-2.93
						c-0.74-1.92-1.5-3.94-2.26-6.07c-0.04-0.07-0.06-0.14-0.08-0.21c-0.15-0.47-0.33-0.94-0.5-1.42c-0.13-0.38-0.27-0.75-0.41-1.13
						c-0.01-0.05-0.02-0.08-0.04-0.12c-0.44-1.26-0.88-2.57-1.33-3.9v0.04c-0.04,1.88-0.09,3.69-0.18,5.43
						c-0.01,0.26-0.02,0.51-0.05,0.77c-0.09,1.99-0.22,3.89-0.39,5.7c-0.08,0.9-0.17,1.78-0.26,2.64c-0.27,2.58-0.62,4.98-1.03,7.17
						c-0.2,1.11-0.41,2.16-0.65,3.17c-0.07,0.33-0.14,0.66-0.24,0.99c-0.08,0.33-0.15,0.65-0.24,0.97
						c-0.07,0.32-0.17,0.64-0.26,0.94c-0.12,0.5-0.26,0.98-0.41,1.45c-0.13,0.41-0.26,0.8-0.39,1.19c-0.18,0.57-0.37,1.11-0.58,1.63
						c-0.09,0.26-0.19,0.52-0.31,0.78c-0.09,0.25-0.2,0.5-0.31,0.74c-0.09,0.25-0.2,0.5-0.32,0.72c-0.2,0.47-0.42,0.92-0.66,1.36
						c-0.09,0.22-0.21,0.44-0.34,0.65c-0.12,0.21-0.22,0.41-0.34,0.61c-0.11,0.2-0.22,0.4-0.35,0.59c-0.12,0.2-0.24,0.39-0.37,0.58
						c-0.13,0.18-0.25,0.37-0.37,0.54c-0.12,0.18-0.25,0.35-0.38,0.52c-0.25,0.34-0.51,0.66-0.78,0.97
						c-0.12,0.15-0.25,0.31-0.39,0.45c-0.26,0.29-0.53,0.58-0.81,0.84c-0.13,0.14-0.27,0.26-0.41,0.38
						c-0.14,0.13-0.28,0.25-0.42,0.37c-0.13,0.12-0.27,0.22-0.4,0.33c-0.29,0.21-0.59,0.42-0.9,0.63c-0.14,0.11-0.28,0.19-0.44,0.27
						c-0.29,0.18-0.6,0.34-0.91,0.5c-0.15,0.09-0.31,0.17-0.46,0.22c-0.46,0.2-0.92,0.39-1.4,0.54c-0.28,0.09-0.57,0.17-0.86,0.24
						c-0.04,0.01-0.06,0.02-0.09,0.02c-0.13,0.04-0.25,0.06-0.38,0.08c-0.04,0.01-0.07,0.02-0.11,0.02
						c-0.24,0.05-0.47,0.09-0.71,0.13h-0.05c-0.29,0.05-0.59,0.08-0.88,0.11c-0.12,0.01-0.22,0.02-0.34,0.02
						c-1.47,0.09-3-0.02-4.54-0.31c-0.8-0.14-1.6-0.33-2.41-0.57c-0.28-0.08-0.58-0.18-0.87-0.27c-0.2-0.07-0.41-0.13-0.61-0.21
						c-0.17-0.05-0.34-0.11-0.51-0.18c-0.8-0.28-1.6-0.61-2.42-0.97c-0.01,0-0.01,0-0.01,0c-0.58-0.27-1.17-0.54-1.77-0.84
						c-0.01,0.01-0.01,0.01-0.01,0c-0.88-0.44-1.77-0.91-2.67-1.4c-0.01,0-0.01,0-0.01,0c-0.59-0.34-1.18-0.68-1.77-1.03
						c-0.01,0-0.01,0-0.01,0l-1.77-1.1h-0.01c-0.58-0.39-1.17-0.77-1.75-1.14c-0.59-0.39-1.18-0.79-1.76-1.19
						c-0.6-0.42-1.19-0.85-1.78-1.26c-0.26-0.2-0.52-0.39-0.79-0.58c0,0-0.01,0.01-0.01,0c-0.55-0.41-1.12-0.83-1.68-1.24
						c-0.54-0.4-1.09-0.81-1.63-1.23c0.14,0.25,0.31,0.48,0.46,0.74c0.17,0.26,0.33,0.53,0.5,0.8c0.57,0.94,1.13,1.96,1.69,3.02
						c7.05,13.23,14.21,35.46,18.81,51.18l2.8,7.22L389.39-270.72z M260.65-276.68l52.17-0.09l51.07,0.09 M268.73-303.16l-6.64-6.26
						l3.02-11.52l7.28,9.42L268.73-303.16z M312.27-307.91l-7.55-10.72l7.55-15.37l7.54,15.37L312.27-307.91z M355.79-303.16
						l-3.66-8.36l7.29-9.42l3.01,11.52L355.79-303.16z"/>
					<path class="st2" d="M364.47-364.78c-26.2,77.69-37.94,33.15-52.21-30.34c0,0.01-0.01,0.03-0.01,0.04
						c0-0.01-0.01-0.03-0.01-0.04c-14.27,63.49-26.01,108.03-52.21,30.34c-1.17,62.83-28.41,46.63-47.95,31.75
						c1.24,1.9,2.42,3.89,3.56,5.93c17.83,14.2,44.67,22.78,45.82-26.53c21.68,64.59,40.89,28.41,50.7-27.35
						c0.03-0.13,0.06-0.25,0.09-0.38c0.03,0.13,0.06,0.25,0.09,0.38c9.82,55.76,29.02,91.94,50.7,27.35
						c1.15,49.31,27.99,40.73,45.82,26.53c1.14-2.04,2.32-4.03,3.56-5.93C392.89-318.15,365.64-301.95,364.47-364.78z"/>
				</g>
				<g>
					<path class="st2" d="M316.23-393.76c0,2.2-1.78,3.98-3.98,3.98c-2.2,0-3.98-1.78-3.98-3.98s1.78-3.98,3.98-3.98
						C314.45-397.74,316.23-395.96,316.23-393.76z"/>
					<g>
						<g>
							<path class="st2" d="M264.23-363.28c0,2.2-1.78,3.98-3.98,3.98s-3.98-1.78-3.98-3.98s1.78-3.98,3.98-3.98
								S264.23-365.48,264.23-363.28z"/>
							<path class="st2" d="M290.37-365.47c0,2.2-1.78,3.98-3.98,3.98s-3.98-1.78-3.98-3.98c0-2.2,1.78-3.98,3.98-3.98
								S290.37-367.67,290.37-365.47z"/>
							<path class="st2" d="M235.14-350.92c0,2.2-1.78,3.98-3.98,3.98c-2.2,0-3.98-1.78-3.98-3.98c0-2.2,1.78-3.98,3.98-3.98
								C233.35-354.9,235.14-353.12,235.14-350.92z"/>
							<path class="st2" d="M216.7-331.85c0,2.2-1.78,3.98-3.98,3.98s-3.98-1.78-3.98-3.98s1.78-3.98,3.98-3.98
								S216.7-334.05,216.7-331.85z"/>
						</g>
						<g>
							<path class="st2" d="M360.3-363.28c0,2.2,1.78,3.98,3.98,3.98s3.98-1.78,3.98-3.98s-1.78-3.98-3.98-3.98
								S360.3-365.48,360.3-363.28z"/>
							<path class="st2" d="M334.16-365.47c0,2.2,1.78,3.98,3.98,3.98s3.98-1.78,3.98-3.98c0-2.2-1.78-3.98-3.98-3.98
								S334.16-367.67,334.16-365.47z"/>
							<path class="st2" d="M389.39-350.92c0,2.2,1.78,3.98,3.98,3.98c2.2,0,3.98-1.78,3.98-3.98c0-2.2-1.78-3.98-3.98-3.98
								C391.18-354.9,389.39-353.12,389.39-350.92z"/>
							<path class="st2" d="M407.83-331.85c0,2.2,1.78,3.98,3.98,3.98s3.98-1.78,3.98-3.98s-1.78-3.98-3.98-3.98
								S407.83-334.05,407.83-331.85z"/>
						</g>
					</g>
				</g>
			</g>
		</g>
		<polygon class="st0" points="440.12,-307.29 401.33,-241.42 401.33,-264.9 424.54,-312.33 		"/>
		<polygon class="st0" points="409.62,-315.36 439.5,-323.57 447.71,-293.68 		"/>
		<polygon class="st0" points="401.33,-241.42 231.16,-264.9 231.16,-264.9 401.33,-264.9 		"/>
	</g>
</g>
<g>
	<g>
		<polygon class="st1" points="544.65,357.34 523.38,357.34 488.56,398.54 488.56,357.34 471.64,357.34 471.64,450 488.56,450 
			488.56,424.01 501,409.21 525.87,450 545.77,450 512.52,395.43 		"/>
		<rect x="554.73" y="382.34" class="st1" width="16.29" height="67.66"/>
		<rect x="554.73" y="357.34" class="st1" width="16.29" height="17.41"/>
		<path class="st1" d="M633.78,384.08c-3.86-2.15-8.27-3.23-13.25-3.23c-4.81,0-9.02,1.06-12.62,3.17
			c-2.78,1.63-4.96,3.85-6.53,6.64v-8.32h-15.3V450h16.29v-39.68c0-2.99,0.58-5.55,1.74-7.71c1.16-2.16,2.78-3.83,4.85-5.04
			c2.07-1.2,4.44-1.8,7.09-1.8c2.74,0,5.12,0.6,7.15,1.8c2.03,1.2,3.63,2.88,4.79,5.04c1.16,2.16,1.74,4.73,1.74,7.71V450h16.29
			v-43.53c0-5.06-1.08-9.51-3.23-13.37C640.64,389.24,637.63,386.24,633.78,384.08z"/>
		<path class="st1" d="M710.33,390.13c-2.13-2.53-4.59-4.57-7.4-6.11c-3.86-2.11-8.31-3.17-13.37-3.17
			c-6.22,0-11.78,1.43-16.67,4.29c-4.89,2.86-8.75,6.78-11.57,11.75c-2.82,4.98-4.23,10.66-4.23,17.04c0,6.3,1.41,11.98,4.23,17.04
			c2.82,5.06,6.72,9.04,11.69,11.94c4.98,2.9,10.61,4.35,16.92,4.35c4.98,0,9.41-1.04,13.31-3.11c2.36-1.26,4.43-2.89,6.22-4.88
			v7.37c0,3.32-0.7,6.16-2.11,8.52c-1.41,2.36-3.38,4.17-5.91,5.41c-2.53,1.24-5.45,1.87-8.77,1.87c-4.31,0-7.94-0.98-10.88-2.92
			c-2.94-1.95-4.91-4.5-5.91-7.65l-15.17,5.72c1.41,3.98,3.67,7.44,6.78,10.39c3.11,2.94,6.82,5.24,11.13,6.9
			c4.31,1.66,9,2.49,14.06,2.49c6.47,0,12.17-1.33,17.1-3.98c4.93-2.66,8.83-6.3,11.69-10.95c2.86-4.64,4.29-9.91,4.29-15.8v-64.31
			h-15.42V390.13z M707.22,423.51c-1.49,2.74-3.55,4.87-6.16,6.41c-2.61,1.54-5.66,2.3-9.14,2.3c-3.48,0-6.57-0.79-9.27-2.36
			c-2.7-1.57-4.81-3.73-6.34-6.47c-1.53-2.74-2.3-5.85-2.3-9.33c0-3.48,0.77-6.61,2.3-9.39c1.53-2.78,3.67-4.95,6.41-6.53
			c2.74-1.57,5.8-2.36,9.2-2.36c3.4,0,6.41,0.79,9.02,2.36c2.61,1.58,4.68,3.75,6.22,6.53c1.53,2.78,2.3,5.91,2.3,9.39
			C709.46,417.62,708.72,420.77,707.22,423.51z"/>
		<path class="st0" d="M767.78,375.37c4.44-2.74,9.56-4.1,15.36-4.1c5.89,0,10.9,1.51,15.05,4.54c4.15,3.03,7.09,6.86,8.83,11.51
			l15.17-7.09c-1.58-4.39-4.19-8.44-7.84-12.13c-3.65-3.69-8.11-6.65-13.37-8.89c-5.27-2.24-11.22-3.36-17.85-3.36
			c-6.64,0-12.77,1.18-18.41,3.54c-5.64,2.36-10.55,5.68-14.74,9.95c-4.19,4.27-7.42,9.33-9.7,15.17
			c-2.28,5.85-3.42,12.21-3.42,19.09c0,6.88,1.16,13.23,3.48,19.03c2.32,5.81,5.58,10.86,9.76,15.18
			c4.19,4.31,9.08,7.67,14.68,10.07c5.6,2.4,11.71,3.61,18.35,3.61c6.63,0,12.58-1.12,17.85-3.36c5.26-2.24,9.72-5.2,13.37-8.89
			c3.65-3.69,6.26-7.73,7.84-12.13l-15.17-7.09c-1.74,4.64-4.69,8.48-8.83,11.51c-4.15,3.03-9.16,4.54-15.05,4.54
			c-5.81,0-10.93-1.37-15.36-4.1c-4.44-2.74-7.88-6.53-10.32-11.38c-2.45-4.85-3.67-10.51-3.67-16.98c0-6.47,1.22-12.11,3.67-16.92
			C759.9,381.88,763.34,378.11,767.78,375.37z"/>
		<path class="st0" d="M876.93,383.89c-4.23-2.03-9.12-3.05-14.68-3.05c-4.56,0-8.79,0.75-12.69,2.24
			c-3.9,1.49-7.28,3.54-10.14,6.16c-2.86,2.61-4.96,5.7-6.28,9.27l13.31,6.47c1.24-3.07,3.21-5.53,5.91-7.4
			c2.69-1.87,5.78-2.8,9.27-2.8c3.73,0,6.74,0.98,9.02,2.92c2.28,1.95,3.42,4.38,3.42,7.28v2.19l-20.15,3.28
			c-5.31,0.83-9.7,2.24-13.18,4.23c-3.48,1.99-6.05,4.46-7.71,7.4c-1.66,2.94-2.49,6.28-2.49,10.01c0,3.9,0.95,7.32,2.86,10.26
			c1.91,2.94,4.6,5.2,8.09,6.78c3.48,1.57,7.59,2.36,12.31,2.36c3.73,0,7.13-0.52,10.2-1.55c3.07-1.04,5.8-2.53,8.21-4.48
			c0.97-0.78,1.88-1.65,2.74-2.58V450h15.42v-45.03c0-4.81-1.18-9.02-3.55-12.62C884.45,388.74,881.16,385.93,876.93,383.89z
			 M871.89,430.85c-1.45,2.57-3.48,4.58-6.09,6.03c-2.61,1.45-5.62,2.18-9.02,2.18c-2.65,0-4.87-0.68-6.65-2.05
			c-1.78-1.37-2.67-3.21-2.67-5.54c0-2.4,0.79-4.35,2.36-5.85c1.57-1.49,3.98-2.53,7.21-3.11l17.04-2.9v2.77
			C874.07,425.46,873.34,428.28,871.89,430.85z"/>
		<rect x="905.41" y="355.85" class="st0" width="16.29" height="94.16"/>
		<rect x="936.76" y="355.85" class="st0" width="16.29" height="94.16"/>
		<path class="st0" d="M1023.2,390.67c-2.82-3.07-6.24-5.47-10.26-7.21c-4.02-1.74-8.69-2.61-13.99-2.61c-6.3,0-12,1.54-17.1,4.6
			c-5.1,3.07-9.12,7.24-12.07,12.5c-2.94,5.27-4.42,11.3-4.42,18.1c0,6.55,1.45,12.52,4.35,17.91c2.9,5.39,6.97,9.66,12.19,12.81
			c5.22,3.15,11.32,4.73,18.28,4.73c4.64,0,8.89-0.7,12.75-2.11c3.86-1.41,7.19-3.36,10.01-5.85c2.82-2.49,4.89-5.35,6.22-8.58
			l-13.18-6.47c-1.49,2.65-3.55,4.77-6.16,6.34c-2.61,1.58-5.78,2.36-9.51,2.36c-3.73,0-7.03-0.87-9.89-2.61
			c-2.86-1.74-5.02-4.21-6.47-7.4c-0.89-1.95-1.44-4.09-1.66-6.41h48.74c0.33-0.91,0.56-1.99,0.68-3.23
			c0.12-1.24,0.19-2.44,0.19-3.61c0-4.56-0.75-8.81-2.24-12.75C1028.18,397.25,1026.02,393.74,1023.2,390.67z M989.87,396.83
			c2.65-1.7,5.68-2.55,9.08-2.55c3.56,0,6.61,0.87,9.14,2.61c2.53,1.74,4.35,4.11,5.47,7.09c0.51,1.36,0.82,2.82,0.94,4.35h-31.86
			c0.27-1.45,0.67-2.79,1.19-4.04C985.2,401.02,987.21,398.53,989.87,396.83z"/>
		<path class="st0" d="M1077.81,381.59c-4.73,0-8.77,1-12.13,2.99c-2.58,1.53-4.63,3.97-6.16,7.31v-9.55h-15.3V450h16.29v-37.69
			c0-5.14,1.41-9.14,4.23-12c2.82-2.86,6.55-4.29,11.19-4.29h5.85v-14.43H1077.81z"/>
	</g>
	<g>
		<g>
			<g>
				<g>
					<path class="st1" d="M249.72,378.89c-3.39,4.8-7.68,7.21-12.88,7.21c-0.78,0-1.59-0.05-2.41-0.16
						c-1.23-9.05-4.02-22.36-10.29-38.97C236.21,362.39,242.89,372.98,249.72,378.89z"/>
					<path class="st1" d="M303.04,369v0.01c-3.5,7.46-7.15,12.08-10.91,12.08c-2.61,0-6.24-2.24-11-9.91
						c5.3-9.81,9.52-24.47,13.54-42.29C296.29,341.03,298.94,356.58,303.04,369z"/>
					<path class="st1" d="M372.03,371.15c-4.76,7.7-8.4,9.94-11.01,9.94c-3.76,0-7.4-4.6-10.89-12.05
						c4.12-12.42,6.77-27.99,8.39-40.15C362.54,346.68,366.75,361.34,372.03,371.15z"/>
					<path class="st1" d="M428.78,347.31l-2.54,7.24l-11.12,31.5c-4.64-0.35-8.53-2.74-11.66-7.14
						c5.84-5.05,11.55-13.48,20.57-25.41C425.53,351.52,427.1,349.46,428.78,347.31z"/>
				</g>
				<g>
					<path class="st1" d="M413.83,388.55c-0.19-0.02-0.37-0.05-0.55-0.09c-0.52-0.07-1.04-0.19-1.54-0.32
						c-0.3-0.07-0.58-0.16-0.87-0.25c-0.17-0.05-0.35-0.11-0.51-0.17c-0.05-0.01-0.1-0.02-0.14-0.05c-0.1-0.02-0.2-0.06-0.3-0.1
						c-0.1-0.04-0.19-0.07-0.29-0.12c-0.58-0.22-1.15-0.5-1.71-0.81c-0.19-0.1-0.36-0.2-0.55-0.32c-0.27-0.16-0.55-0.33-0.82-0.52
						c-0.27-0.19-0.55-0.38-0.81-0.58c0,0,0,0-0.01,0c-0.26-0.21-0.52-0.42-0.78-0.64c-0.26-0.22-0.52-0.46-0.77-0.69h-0.01
						c-0.26-0.25-0.51-0.51-0.76-0.78c-0.09-0.07-0.17-0.16-0.25-0.26c-0.16-0.17-0.32-0.36-0.5-0.56
						c-1.51-1.77-2.91-3.97-4.15-6.62c-0.35-0.69-0.66-1.41-0.97-2.17c-0.22-0.55-0.43-1.1-0.64-1.67
						c-0.14-0.33-0.26-0.68-0.37-1.04c-0.14-0.37-0.26-0.76-0.38-1.15c-0.12-0.4-0.25-0.79-0.37-1.2c-0.05-0.14-0.09-0.27-0.12-0.41
						c-0.09-0.3-0.16-0.58-0.25-0.88c-0.29-0.99-0.55-2.02-0.79-3.1c-0.14-0.51-0.25-1.04-0.36-1.57c-0.11-0.53-0.22-1.08-0.33-1.64
						c-0.33-1.66-0.63-3.4-0.89-5.25c-0.09-0.61-0.17-1.24-0.26-1.87c-0.09-0.64-0.17-1.29-0.25-1.96
						c-0.02-0.21-0.05-0.42-0.07-0.63c-0.01-0.11-0.02-0.22-0.02-0.33c-0.04-0.27-0.07-0.55-0.09-0.82
						c-0.07-0.66-0.14-1.34-0.2-2.01c-0.1-0.94-0.17-1.92-0.25-2.91c-0.02-0.38-0.05-0.78-0.07-1.18c-0.05-0.58-0.09-1.18-0.12-1.77
						c-0.01-0.16-0.02-0.31-0.02-0.47c-0.05-0.77-0.09-1.54-0.12-2.32c-0.02-0.55-0.05-1.09-0.07-1.65
						c-0.04-0.83-0.06-1.66-0.09-2.52c-0.01-0.86-0.04-1.72-0.05-2.6c0,0.01-0.01,0.02-0.01,0.04c-0.19,0.55-0.37,1.08-0.55,1.6
						c-0.21,0.58-0.4,1.15-0.6,1.71c-0.35,1.04-0.69,2.05-1.04,3.04v0.01c-0.02,0.02-0.04,0.06-0.05,0.09
						c-0.01,0.02-0.02,0.06-0.04,0.1c-0.36,1.07-0.73,2.1-1.12,3.1c-0.74,2.02-1.48,3.97-2.2,5.84c-1.07,2.78-2.12,5.37-3.15,7.8
						c-0.51,1.2-1.02,2.36-1.51,3.48c-0.02,0.02-0.04,0.06-0.05,0.1c-0.35,0.74-0.68,1.49-1.02,2.21c-0.1,0.24-0.21,0.47-0.32,0.71
						c-0.06,0.11-0.11,0.24-0.17,0.35c-0.33,0.71-0.67,1.38-0.99,2.05c-0.15,0.33-0.31,0.64-0.5,0.97
						c-0.64,1.29-1.29,2.51-1.93,3.63c-0.32,0.57-0.63,1.12-0.94,1.65c-0.16,0.27-0.32,0.53-0.48,0.79c-0.31,0.51-0.62,1-0.93,1.49
						c-0.29,0.47-0.6,0.93-0.91,1.38c-0.61,0.89-1.2,1.71-1.8,2.46c-2.24,2.84-4.38,4.71-6.44,5.72L364.2,383
						c-0.04,0.02-0.09,0.04-0.14,0.06c-0.22,0.1-0.45,0.17-0.67,0.25c-0.4,0.14-0.79,0.24-1.19,0.3c-0.14,0.02-0.26,0.04-0.4,0.06
						h-0.04c-0.07,0.01-0.14,0.01-0.21,0.01c-0.78,0.07-1.55,0-2.32-0.21c-0.19-0.04-0.37-0.1-0.56-0.17
						c-4.59-1.56-8.76-7.75-12.71-17.26c-0.19-0.43-0.36-0.87-0.53-1.3c-0.17-0.43-0.35-0.88-0.52-1.34
						c-0.35-0.91-0.71-1.84-1.05-2.79c-0.52-1.44-1.04-2.94-1.55-4.49c-0.3-0.89-0.6-1.81-0.91-2.75l-0.45-1.41
						c-0.3-0.95-0.6-1.92-0.89-2.9c-0.81-2.65-1.6-5.43-2.39-8.31c-0.24-0.86-0.47-1.74-0.71-2.62c-0.26-0.94-0.51-1.89-0.76-2.84
						c-0.17-0.63-0.33-1.28-0.51-1.92c-0.17-0.64-0.33-1.3-0.51-1.96c-0.15-0.61-0.3-1.22-0.46-1.84c-0.51-2.05-1.03-4.12-1.54-6.23
						c-0.02-0.15-0.06-0.31-0.1-0.46c-0.14-0.53-0.27-1.08-0.41-1.61c-0.83-3.48-1.67-7.04-2.52-10.69c-0.17-0.73-0.33-1.46-0.5-2.2
						c-0.27-1.17-0.55-2.34-0.82-3.52c-0.07-0.3-0.14-0.61-0.21-0.91c-0.2-0.88-0.4-1.77-0.6-2.67c-0.14-0.61-0.29-1.22-0.42-1.84
						c-0.35-1.51-0.68-3.04-1.03-4.56c-0.01,0.01-0.01,0.04-0.01,0.05c-0.48,2.15-0.97,4.25-1.44,6.36v0.01
						c-2.02,8.94-4.02,17.52-6.03,25.55c-0.55,2.17-1.09,4.29-1.61,6.37c-0.51,1.96-1.02,3.87-1.53,5.74
						c-1.02,3.75-2.03,7.33-3.06,10.72c-0.5,1.67-1.02,3.31-1.54,4.89c-0.84,2.63-1.71,5.11-2.6,7.44
						c-0.17,0.47-0.35,0.93-0.52,1.38c-0.12,0.36-0.27,0.72-0.41,1.07c-0.02,0.04-0.04,0.06-0.06,0.1c-0.19,0.51-0.4,0.99-0.6,1.48
						c-0.17,0.42-0.35,0.84-0.53,1.26c-0.16,0.4-0.33,0.79-0.51,1.17c-0.21,0.47-0.42,0.93-0.63,1.38
						c-0.33,0.72-0.67,1.41-1.02,2.07c-0.16,0.35-0.35,0.69-0.53,1.03c-0.06,0.12-0.12,0.24-0.19,0.35c-0.3,0.56-0.6,1.08-0.89,1.59
						c-0.21,0.33-0.41,0.66-0.6,0.97c-0.37,0.6-0.74,1.15-1.13,1.69c-0.2,0.27-0.38,0.53-0.57,0.78c-0.38,0.5-0.76,0.97-1.15,1.39
						c-0.2,0.22-0.4,0.43-0.58,0.63c-0.2,0.21-0.4,0.4-0.6,0.57c-0.19,0.19-0.38,0.36-0.58,0.52c-0.4,0.35-0.79,0.64-1.2,0.89
						c-0.17,0.14-0.35,0.24-0.53,0.32c-0.02,0.02-0.05,0.04-0.06,0.04c-0.05,0.02-0.1,0.05-0.14,0.07
						c-0.36,0.21-0.73,0.37-1.09,0.51c-0.02,0.01-0.04,0.01-0.06,0.01c-0.38,0.14-0.78,0.25-1.18,0.32
						c-1.19,0.22-2.41,0.14-3.65-0.29c-0.27-0.09-0.53-0.19-0.79-0.31c-0.42-0.16-0.83-0.38-1.25-0.63
						c-0.27-0.19-0.53-0.36-0.81-0.55h-0.01c-0.83-0.57-1.69-1.3-2.55-2.2c-0.37-0.37-0.76-0.78-1.13-1.22
						c-0.57-0.64-1.14-1.35-1.71-2.12c-0.2-0.26-0.4-0.52-0.58-0.79c-0.33-0.5-0.68-1-1.05-1.53c-0.02-0.02-0.05-0.06-0.06-0.1
						c-0.01-0.02-0.04-0.06-0.05-0.1c-0.4-0.6-0.79-1.23-1.2-1.88c-0.41-0.66-0.82-1.34-1.22-2.06c-0.41-0.72-0.82-1.46-1.23-2.24
						c0,0-0.01,0-0.01-0.01c-0.21-0.38-0.42-0.77-0.62-1.18c-0.21-0.4-0.42-0.82-0.63-1.24c-0.4-0.79-0.81-1.61-1.22-2.47
						c-0.24-0.5-0.47-1-0.71-1.51c-0.43-0.93-0.87-1.9-1.3-2.89c-1.55-3.48-3.14-7.37-4.76-11.66c-0.36-0.95-0.73-1.93-1.09-2.93
						c-0.1-0.27-0.2-0.55-0.3-0.82c-0.24-0.64-0.47-1.3-0.71-1.96c-0.04-0.09-0.07-0.17-0.1-0.26c-0.2-0.6-0.41-1.18-0.62-1.76
						c-0.16-0.47-0.33-0.93-0.51-1.4c-0.01-0.05-0.04-0.1-0.05-0.15c-0.27-0.78-0.55-1.57-0.82-2.38c-0.27-0.81-0.56-1.62-0.83-2.46
						v0.04c-0.02,1.17-0.05,2.31-0.1,3.44c-0.01,0.24-0.01,0.47-0.02,0.71c-0.02,0.57-0.04,1.13-0.06,1.69
						c-0.01,0.3-0.02,0.61-0.04,0.91c-0.01,0.19-0.02,0.37-0.02,0.55c-0.01,0.12-0.02,0.26-0.04,0.4c0,0.1-0.01,0.2-0.01,0.3
						c0,0.24-0.02,0.46-0.04,0.68c-0.07,1.51-0.17,2.98-0.29,4.39c-0.05,0.55-0.09,1.09-0.14,1.62v0.07
						c-0.05,0.51-0.1,1.02-0.15,1.51c-0.01,0.1-0.01,0.21-0.02,0.31c-0.11,1.04-0.22,2.05-0.33,3.04c-0.12,1.04-0.25,2.05-0.4,3.04
						c-0.36,2.47-0.76,4.77-1.22,6.93c-0.09,0.43-0.19,0.86-0.29,1.28c-0.04,0.19-0.09,0.37-0.12,0.56
						c-0.01,0.05-0.01,0.09-0.02,0.12c-0.05,0.17-0.1,0.36-0.15,0.55c-0.1,0.41-0.19,0.81-0.29,1.2c-0.06,0.26-0.14,0.53-0.21,0.78
						c-0.07,0.29-0.15,0.56-0.22,0.82c-0.12,0.47-0.26,0.92-0.4,1.36c-0.43,1.41-0.89,2.74-1.39,3.98
						c-0.12,0.32-0.25,0.63-0.38,0.94c-0.05,0.16-0.12,0.31-0.19,0.46c-0.12,0.31-0.25,0.62-0.4,0.89c-0.12,0.3-0.26,0.58-0.4,0.86
						c-0.14,0.29-0.29,0.56-0.42,0.83c-0.04,0.09-0.09,0.19-0.12,0.27c-0.05,0.09-0.1,0.17-0.14,0.25
						c-0.06,0.09-0.11,0.19-0.17,0.29c-0.14,0.26-0.27,0.51-0.42,0.76c-0.02,0.05-0.05,0.11-0.09,0.16c-0.1,0.2-0.22,0.38-0.35,0.57
						c-1.22,1.98-2.54,3.61-3.94,4.95c-0.14,0.11-0.26,0.22-0.4,0.35c-0.17,0.16-0.36,0.31-0.53,0.46c-0.16,0.14-0.33,0.27-0.5,0.41
						c-0.11,0.07-0.22,0.16-0.33,0.24c-0.26,0.19-0.52,0.36-0.78,0.53c-0.04,0.04-0.09,0.06-0.12,0.1
						c-0.14,0.07-0.27,0.16-0.41,0.24c-0.74,0.46-1.5,0.83-2.28,1.14c-0.19,0.07-0.37,0.15-0.56,0.21
						c-0.99,0.37-2.01,0.63-3.04,0.79c-0.07,0.01-0.15,0.02-0.22,0.04h-0.06c-0.3,0.05-0.6,0.09-0.89,0.11
						c-0.06,0.01-0.14,0.01-0.2,0.02c-0.07,0.01-0.12,0.01-0.2,0.01c-0.06,0-0.12,0.01-0.19,0.01h-0.05
						c-0.41,0.02-0.82,0.04-1.24,0.04c-1.03,0-2.07-0.07-3.11-0.22c-0.35-0.04-0.71-0.1-1.05-0.16c-0.4-0.06-0.78-0.14-1.17-0.24
						c-0.32-0.05-0.64-0.12-0.97-0.22c-0.01,0-0.02,0-0.04-0.01c-0.35-0.07-0.68-0.16-1.03-0.26c-0.36-0.11-0.72-0.22-1.09-0.33
						l-0.01-0.01c-0.29-0.09-0.57-0.19-0.86-0.3c-0.16-0.04-0.35-0.1-0.52-0.17c-0.99-0.36-2-0.76-3-1.2
						c-0.19-0.09-0.38-0.17-0.58-0.27c-0.52-0.24-1.07-0.5-1.62-0.77c-0.01,0.01-0.01,0.01-0.01,0c-1.09-0.53-2.2-1.12-3.3-1.74
						c-0.02,0-0.02,0-0.02,0c-0.21-0.12-0.41-0.24-0.62-0.36c-0.52-0.3-1.04-0.61-1.58-0.92c-0.29-0.17-0.57-0.35-0.86-0.52
						c-2.68-1.64-5.33-3.44-7.91-5.3h-0.01c-0.32-0.24-0.66-0.47-0.98-0.72c-0.71-0.51-1.4-1.02-2.1-1.54
						c-0.33-0.26-0.67-0.51-1-0.76c-0.32-0.25-0.67-0.51-1-0.77c0,0.01,0.01,0.01,0.01,0.02c0.17,0.3,0.37,0.6,0.56,0.91
						c0.21,0.33,0.42,0.67,0.63,1c0.68,1.17,1.39,2.42,2.07,3.73c8.76,16.41,17.64,43.98,23.34,63.47l2.72,8.95L400.66,427
						l12.08-34.22l1.48-4.19C414.08,388.59,413.96,388.57,413.83,388.55z M272.6,408.93l-8.23-7.78l3.75-14.29l9.03,11.68
						L272.6,408.93z M326.6,403.03l-9.36-13.29l9.36-19.06l9.35,19.06L326.6,403.03z M380.58,408.93l-4.54-10.38l9.04-11.68
						l3.73,14.29L380.58,408.93z"/>
					<path class="st2" d="M413.29,388.47c0.31,0.05,0.62,0.09,0.93,0.12l-1.48,4.19c-12.46-1.49-22.4-13.63-23.17-46.44
						c-26.89,80.1-50.71,35.22-62.89-33.92c-0.04-0.16-0.06-0.32-0.1-0.47c-0.04,0.15-0.07,0.31-0.11,0.47
						c-12.18,69.14-35.99,114.02-62.88,33.92c-1.44,61.15-34.72,50.51-56.84,32.9c-0.32-0.58-0.64-1.17-0.98-1.74
						c-0.71-1.24-1.44-2.47-2.18-3.66c-0.21-0.33-0.42-0.67-0.63-1c-0.21-0.32-0.41-0.64-0.62-0.95c0.02,0.01,0.04,0.04,0.06,0.05
						c0.66,0.5,1.33,0.99,2,1.5c0.69,0.52,1.39,1.03,2.1,1.54c0.32,0.25,0.66,0.48,0.98,0.72h0.01c2.58,1.86,5.23,3.66,7.91,5.3
						c0.29,0.17,0.57,0.35,0.86,0.52c0.53,0.31,1.05,0.62,1.58,0.92c0.22,0.12,0.43,0.25,0.64,0.36c1.1,0.62,2.21,1.2,3.3,1.74
						c0,0.01,0,0.01,0.01,0c0.55,0.27,1.08,0.53,1.62,0.77c0.2,0.1,0.4,0.19,0.58,0.27c1,0.45,2.01,0.84,3,1.2
						c0.17,0.07,0.36,0.14,0.52,0.17c0.29,0.11,0.57,0.21,0.86,0.3c0.72,0.22,1.43,0.43,2.13,0.61c0.01,0.01,0.02,0.01,0.04,0.01
						c0.32,0.09,0.64,0.16,0.97,0.22c0.38,0.1,0.77,0.17,1.17,0.24c0.35,0.06,0.71,0.12,1.05,0.16c1.04,0.15,2.08,0.22,3.11,0.22
						c0.42,0,0.83-0.01,1.24-0.04h0.05c0.2-0.01,0.4-0.04,0.58-0.05c0.3-0.02,0.6-0.06,0.89-0.11c0.1-0.01,0.19-0.02,0.29-0.04
						c1.03-0.16,2.05-0.42,3.04-0.79c0.19-0.06,0.37-0.14,0.56-0.21c0.78-0.31,1.54-0.68,2.28-1.14c0.14-0.07,0.27-0.16,0.41-0.24
						c0.31-0.21,0.61-0.42,0.91-0.63c0.29-0.21,0.56-0.42,0.83-0.64c0.17-0.15,0.36-0.3,0.53-0.46c0.14-0.12,0.26-0.24,0.4-0.35
						c1.4-1.34,2.73-2.96,3.94-4.95c0.12-0.19,0.24-0.37,0.35-0.57c0.24-0.38,0.46-0.78,0.68-1.2c0.04-0.07,0.09-0.16,0.14-0.25
						c0.17-0.36,0.36-0.72,0.55-1.1c0.14-0.27,0.27-0.56,0.4-0.86c0.14-0.29,0.27-0.58,0.4-0.89c0.06-0.15,0.14-0.3,0.19-0.46
						c0.14-0.31,0.26-0.62,0.38-0.94c0.5-1.24,0.95-2.57,1.39-3.98c0.14-0.45,0.27-0.89,0.4-1.36c0.07-0.26,0.15-0.53,0.22-0.82
						c0.07-0.25,0.15-0.52,0.21-0.78c0.15-0.57,0.29-1.15,0.43-1.75c0.01-0.04,0.01-0.07,0.02-0.12c0.14-0.6,0.27-1.22,0.41-1.84
						c0.46-2.16,0.86-4.46,1.22-6.93c0.15-0.99,0.27-2,0.4-3.04c0.11-0.99,0.22-2,0.33-3.04c0.01-0.1,0.01-0.21,0.02-0.31
						c0.1-1.04,0.2-2.12,0.29-3.21c0.11-1.41,0.21-2.88,0.29-4.39c0.04-0.45,0.05-0.92,0.09-1.38c0-0.17,0.01-0.36,0.02-0.55
						c0.01-0.3,0.02-0.61,0.04-0.91c0.02-0.56,0.04-1.12,0.06-1.69c0.01-0.24,0.01-0.47,0.02-0.71c0.04-1.13,0.06-2.29,0.09-3.47
						c0,0.01,0.01,0.02,0.01,0.04c0.56,1.65,1.1,3.25,1.65,4.8c0.01,0.05,0.04,0.1,0.05,0.15c0.16,0.47,0.33,0.94,0.5,1.41
						c0.21,0.58,0.42,1.18,0.63,1.75c0.02,0.09,0.06,0.17,0.1,0.26c0.22,0.67,0.47,1.31,0.71,1.96c0.1,0.27,0.2,0.55,0.3,0.82
						c0.36,0.99,0.73,1.97,1.09,2.93c1.62,4.29,3.21,8.17,4.76,11.66c0.43,0.99,0.87,1.96,1.3,2.89c0.24,0.51,0.47,1.02,0.71,1.51
						c0.41,0.86,0.82,1.67,1.22,2.47c0.21,0.42,0.42,0.84,0.63,1.24c0.2,0.41,0.41,0.79,0.62,1.18c0,0.01,0.01,0.01,0.01,0.01
						c0.41,0.78,0.82,1.53,1.23,2.24c0.4,0.72,0.81,1.4,1.22,2.06c0.41,0.69,0.83,1.35,1.25,1.98c0.01,0.04,0.04,0.07,0.06,0.1
						c0.36,0.53,0.71,1.04,1.05,1.53c0.19,0.27,0.38,0.53,0.58,0.79c0.57,0.77,1.14,1.48,1.71,2.12c0.37,0.43,0.76,0.84,1.13,1.22
						c0.87,0.89,1.72,1.62,2.55,2.2c0.27,0.2,0.55,0.38,0.82,0.55c0.42,0.25,0.83,0.47,1.25,0.63c0.26,0.12,0.52,0.22,0.79,0.31
						c1.24,0.42,2.46,0.51,3.65,0.29c0.79-0.15,1.56-0.43,2.33-0.84c0.04-0.02,0.09-0.05,0.14-0.07c0.01,0,0.04-0.01,0.06-0.04
						c0.17-0.1,0.36-0.21,0.53-0.32c0.41-0.26,0.81-0.56,1.2-0.89c0.2-0.16,0.4-0.33,0.58-0.52c0.2-0.19,0.4-0.37,0.6-0.57
						c0.19-0.2,0.38-0.41,0.58-0.63c0.38-0.43,0.77-0.89,1.15-1.39c0.19-0.25,0.37-0.51,0.57-0.78c0.37-0.53,0.74-1.09,1.13-1.69
						c0.19-0.31,0.38-0.63,0.6-0.97c0.3-0.51,0.6-1.03,0.89-1.59c0.06-0.11,0.12-0.22,0.19-0.35c0.19-0.33,0.37-0.68,0.53-1.03
						c0.35-0.66,0.68-1.35,1.02-2.07c0.21-0.45,0.42-0.91,0.63-1.38c0.17-0.38,0.35-0.77,0.51-1.17c0.19-0.42,0.36-0.84,0.53-1.26
						c0.2-0.48,0.41-0.97,0.6-1.48c0.16-0.38,0.31-0.77,0.47-1.17c0.17-0.45,0.35-0.91,0.52-1.38c0.88-2.33,1.74-4.81,2.6-7.44
						c0.51-1.59,1.02-3.21,1.54-4.89c4.11-13.54,8.09-30.22,12.22-48.4c0.47-2.11,0.95-4.24,1.44-6.4c0,0.01,0,0.04,0.01,0.05
						c0-0.01,0-0.04,0.01-0.05c0.35,1.53,0.68,3.05,1.03,4.56c0.14,0.61,0.27,1.23,0.41,1.84c0.21,0.89,0.41,1.79,0.61,2.67
						c0.07,0.3,0.14,0.61,0.21,0.91c0.43,1.92,0.88,3.83,1.31,5.72c0.84,3.65,1.69,7.21,2.52,10.69c0.17,0.69,0.33,1.39,0.51,2.07
						c0.51,2.11,1.03,4.18,1.54,6.23c0.32,1.28,0.64,2.54,0.97,3.79c0.17,0.64,0.33,1.29,0.51,1.92c0.25,0.95,0.5,1.9,0.76,2.84
						c0.24,0.88,0.47,1.76,0.71,2.62c0.79,2.88,1.59,5.66,2.39,8.31c0.3,0.98,0.6,1.95,0.89,2.9l0.45,1.41
						c0.3,0.94,0.6,1.86,0.91,2.75c0.51,1.55,1.03,3.05,1.55,4.49c0.35,0.95,0.71,1.89,1.05,2.79c0.35,0.91,0.71,1.79,1.05,2.64
						c3.96,9.51,8.12,15.7,12.71,17.26c0.19,0.07,0.37,0.14,0.56,0.17c0.77,0.21,1.54,0.29,2.32,0.21c0.21-0.01,0.43-0.04,0.64-0.07
						c0.4-0.06,0.79-0.16,1.19-0.3c0.22-0.07,0.45-0.15,0.67-0.25c0.05-0.02,0.1-0.04,0.14-0.06l0.41-0.19
						c2.06-1,4.19-2.88,6.44-5.72c1.18-1.5,2.39-3.27,3.63-5.32c0.16-0.26,0.32-0.52,0.48-0.79c0.31-0.53,0.62-1.08,0.94-1.65
						c0.64-1.13,1.29-2.34,1.93-3.63c0.16-0.31,0.32-0.64,0.5-0.97c0.32-0.67,0.66-1.34,0.99-2.05c0.16-0.35,0.33-0.69,0.5-1.05
						c0.33-0.72,0.67-1.46,1.02-2.21c0.01-0.04,0.02-0.07,0.05-0.1c0.5-1.13,1-2.28,1.51-3.48c1.03-2.43,2.08-5.02,3.15-7.8
						c0.72-1.87,1.45-3.82,2.2-5.84c0.36-1.02,0.73-2.05,1.12-3.1c0.01-0.04,0.02-0.07,0.04-0.1c0-0.04,0.01-0.07,0.02-0.1
						c0.36-0.99,0.71-2.01,1.07-3.04c0.2-0.56,0.38-1.13,0.6-1.71c0.17-0.55,0.36-1.09,0.55-1.64v0.04
						c0.04,1.75,0.09,3.44,0.15,5.08c0.02,0.56,0.05,1.1,0.06,1.65c0.05,0.79,0.09,1.56,0.14,2.32c0,0.16,0.01,0.31,0.02,0.47
						c0.05,1,0.12,1.98,0.2,2.95c0.07,0.99,0.15,1.97,0.25,2.91c0.05,0.68,0.12,1.35,0.2,2.01c0.01,0.27,0.05,0.55,0.09,0.82
						c0.02,0.32,0.06,0.64,0.1,0.97c0.07,0.67,0.16,1.31,0.25,1.96c0.09,0.63,0.17,1.27,0.26,1.87c0.26,1.85,0.56,3.58,0.89,5.25
						c0.11,0.56,0.22,1.1,0.33,1.64c0.11,0.53,0.22,1.07,0.36,1.57c0.57,2.47,1.22,4.71,1.92,6.75c0.11,0.36,0.24,0.71,0.37,1.04
						c0.2,0.57,0.42,1.13,0.64,1.67c0.31,0.76,0.62,1.48,0.97,2.17c1.24,2.65,2.64,4.85,4.15,6.62c0.17,0.2,0.33,0.38,0.5,0.56
						c0.07,0.1,0.16,0.19,0.25,0.26c0.25,0.27,0.5,0.53,0.76,0.78h0.01c0.25,0.25,0.51,0.47,0.77,0.69
						c0.26,0.22,0.52,0.43,0.78,0.64c0.01,0,0.01,0,0.01,0c0.27,0.21,0.53,0.41,0.81,0.58c0.27,0.19,0.53,0.36,0.82,0.52
						c0.17,0.11,0.36,0.22,0.55,0.32c0.56,0.31,1.13,0.58,1.71,0.81c0.19,0.09,0.38,0.16,0.58,0.22c0.04,0.02,0.09,0.04,0.14,0.05
						c0.16,0.06,0.33,0.12,0.51,0.17c0.29,0.09,0.57,0.17,0.87,0.25C412.24,388.28,412.77,388.39,413.29,388.47z"/>
				</g>
				<g>
					<path class="st0" d="M331.52,296.57c0,2.73-2.21,4.94-4.94,4.94c-2.73,0-4.94-2.21-4.94-4.94s2.21-4.94,4.94-4.94
						C329.31,291.63,331.52,293.84,331.52,296.57z"/>
					<g>
						<g>
							<path class="st0" d="M267.02,334.37c0,2.73-2.21,4.94-4.94,4.94c-2.73,0-4.94-2.21-4.94-4.94c0-2.73,2.21-4.94,4.94-4.94
								C264.81,329.43,267.02,331.64,267.02,334.37z"/>
							<path class="st0" d="M299.44,331.65c0,2.73-2.21,4.94-4.94,4.94s-4.94-2.21-4.94-4.94c0-2.73,2.21-4.94,4.94-4.94
								S299.44,328.93,299.44,331.65z"/>
							<path class="st0" d="M230.94,349.69c0,2.73-2.21,4.94-4.94,4.94c-2.73,0-4.94-2.21-4.94-4.94c0-2.73,2.21-4.94,4.94-4.94
								C228.73,344.76,230.94,346.97,230.94,349.69z"/>
							<path class="st0" d="M208.08,373.34c0,2.73-2.21,4.94-4.94,4.94c-2.73,0-4.94-2.21-4.94-4.94s2.21-4.94,4.94-4.94
								C205.87,368.41,208.08,370.61,208.08,373.34z"/>
						</g>
						<g>
							<path class="st0" d="M386.17,334.37c0,2.73,2.21,4.94,4.94,4.94c2.73,0,4.94-2.21,4.94-4.94c0-2.73-2.21-4.94-4.94-4.94
								C388.38,329.43,386.17,331.64,386.17,334.37z"/>
							<path class="st0" d="M353.75,331.65c0,2.73,2.21,4.94,4.94,4.94s4.94-2.21,4.94-4.94c0-2.73-2.21-4.94-4.94-4.94
								S353.75,328.93,353.75,331.65z"/>
							<path class="st0" d="M429.48,345.33l-0.71,1.97l-2.54,7.24c-0.83-0.16-1.59-0.53-2.21-1.05c-1.08-0.91-1.77-2.27-1.77-3.79
								c0-2.73,2.21-4.94,4.92-4.94C428.01,344.76,428.8,344.97,429.48,345.33z"/>
						</g>
					</g>
				</g>
			</g>
		</g>
		<polygon class="st1" points="231.73,450 422.25,450 461.11,334.37 439.93,334.37 405.2,432.78 		"/>
		<polygon class="st0" points="422.85,330.42 456.82,312.44 474.79,346.42 		"/>
	</g>
</g>
<g>
	<g>
		<g>
			<path class="st1" d="M250.28,878.91c-2.73,3.87-6.2,5.82-10.38,5.82c-0.63,0-1.28-0.04-1.95-0.13c-0.99-7.3-3.24-18.03-8.3-31.42
				C239.38,865.6,244.77,874.14,250.28,878.91z"/>
			<path class="st1" d="M293.27,870.93v0.01c-2.82,6.02-5.76,9.74-8.79,9.74c-2.1,0-5.03-1.81-8.87-7.99
				c4.27-7.91,7.68-19.73,10.92-34.1C287.83,848.38,289.97,860.92,293.27,870.93z"/>
			<path class="st1" d="M348.9,872.67c-3.84,6.21-6.77,8.02-8.88,8.02c-3.03,0-5.96-3.71-8.78-9.72
				c3.32-10.01,5.46-22.57,6.76-32.38C341.25,852.94,344.64,864.76,348.9,872.67z"/>
			<path class="st1" d="M394.87,853.18c-5.06,13.39-7.3,24.12-8.3,31.42c-0.66,0.08-1.31,0.13-1.96,0.13
				c-4.18,0-7.64-1.95-10.38-5.81C379.76,874.15,385.14,865.61,394.87,853.18z"/>
		</g>
		<g>
			<path class="st1" d="M410.39,874.79c-0.43,0.32-0.87,0.64-1.3,0.96l-0.78,0.57c-0.02,0.01-0.05,0.03-0.07,0.05
				c-2.9,2.07-5.9,4.06-8.91,5.74c-0.46,0.26-0.92,0.5-1.39,0.75c-0.09,0.05-0.19,0.1-0.28,0.14c-0.45,0.24-0.9,0.46-1.33,0.68
				c-1.55,0.73-3.08,1.36-4.59,1.87c-0.2,0.06-0.4,0.13-0.6,0.19c-0.19,0.06-0.38,0.12-0.56,0.17c-0.29,0.08-0.58,0.16-0.87,0.23
				c-1.44,0.37-2.87,0.59-4.26,0.66c-0.27,0.01-0.55,0.03-0.83,0.03c-0.16,0-0.34,0-0.5-0.02c-0.16,0-0.31-0.01-0.48-0.02
				c-0.23-0.01-0.47-0.04-0.69-0.06c-0.12,0-0.23-0.02-0.34-0.03c-1.08-0.15-2.13-0.41-3.14-0.79c-0.2-0.08-0.4-0.16-0.6-0.25
				c-0.34-0.16-0.67-0.32-1.01-0.5c-0.15-0.08-0.29-0.16-0.44-0.26c-0.89-0.53-1.75-1.19-2.57-1.97c-0.28-0.27-0.55-0.54-0.82-0.83
				c-0.93-1.03-1.8-2.23-2.63-3.65c-0.47-0.8-0.92-1.67-1.34-2.62c-0.76-1.65-1.44-3.51-2.06-5.6c-0.09-0.3-0.17-0.6-0.26-0.91
				c-0.86-3.09-1.56-6.64-2.1-10.73c-0.09-0.68-0.17-1.37-0.26-2.09c-0.03-0.31-0.05-0.62-0.09-0.93c-0.06-0.53-0.11-1.08-0.16-1.62
				c-0.03-0.33-0.06-0.67-0.09-1.01c-0.07-0.75-0.13-1.51-0.17-2.29c-0.09-1.19-0.16-2.42-0.22-3.68c-0.08-1.75-0.14-3.57-0.17-5.46
				c-0.61,1.78-1.19,3.5-1.77,5.15c-0.03,0.05-0.05,0.11-0.06,0.15c-0.4,1.15-0.8,2.26-1.22,3.34c-0.48,1.34-0.98,2.63-1.45,3.87
				c-0.58,1.51-1.14,2.95-1.72,4.32c-0.27,0.67-0.54,1.33-0.83,1.98c-0.01,0.02-0.02,0.04-0.02,0.06c-0.27,0.65-0.54,1.28-0.82,1.9
				c-0.5,1.14-1.01,2.24-1.5,3.28c-0.32,0.66-0.63,1.31-0.93,1.92c-0.13,0.27-0.26,0.53-0.41,0.79c-0.66,1.3-1.31,2.5-1.94,3.61
				c-0.12,0.22-0.25,0.44-0.38,0.65c-1.01,1.72-2,3.22-2.97,4.48c-0.23,0.31-0.46,0.59-0.69,0.86c-1.32,1.63-2.6,2.82-3.84,3.62
				c-0.12,0.09-0.23,0.16-0.34,0.22c-0.59,0.36-1.2,0.63-1.77,0.8c-0.18,0.06-0.35,0.1-0.52,0.14c-0.03,0.01-0.05,0.01-0.07,0.01
				c-0.19,0.05-0.38,0.07-0.57,0.1h-0.03c-0.2,0.02-0.39,0.03-0.59,0.03c-0.17,0-0.35-0.01-0.51-0.02c-0.17-0.01-0.33-0.04-0.5-0.07
				c-0.29-0.05-0.6-0.13-0.89-0.24c-0.13-0.03-0.25-0.08-0.38-0.14c-1.24-0.51-2.44-1.44-3.61-2.76c-0.32-0.34-0.63-0.72-0.93-1.12
				c-0.16-0.2-0.31-0.41-0.46-0.63c-0.31-0.42-0.62-0.88-0.91-1.37c-0.3-0.47-0.6-0.97-0.9-1.5c-0.29-0.52-0.59-1.08-0.88-1.66
				c-0.59-1.15-1.17-2.39-1.75-3.72c-0.29-0.68-0.58-1.36-0.86-2.07s-0.56-1.44-0.85-2.19c-0.28-0.76-0.56-1.52-0.84-2.31
				s-0.56-1.61-0.83-2.45c-1.95-5.8-3.84-12.53-5.74-19.93c-0.37-1.5-0.76-3.02-1.14-4.57c-0.19-0.75-0.37-1.53-0.55-2.3
				c-0.25-0.97-0.49-1.95-0.72-2.96c-0.55-2.27-1.09-4.6-1.64-6.96c-0.14-0.59-0.27-1.18-0.4-1.77c-0.44-1.88-0.88-3.78-1.31-5.72
				c-0.39-1.69-0.78-3.43-1.17-5.16c0,0.01-0.01,0.02-0.01,0.04c-0.39,1.73-0.78,3.44-1.16,5.14c-4.67,20.58-9.12,38.79-13.95,50.92
				c-0.05,0.07-0.07,0.14-0.1,0.22c-1.84,4.61-3.75,8.34-5.75,10.95c-0.77,1.01-1.55,1.85-2.35,2.51c-0.32,0.28-0.64,0.52-0.97,0.72
				c-0.15,0.11-0.29,0.2-0.45,0.27c-0.04,0.04-0.09,0.06-0.14,0.08c-0.29,0.17-0.59,0.3-0.88,0.41c-0.82,0.29-1.64,0.41-2.49,0.34
				c-0.16-0.01-0.32-0.04-0.47-0.06c-0.32-0.05-0.64-0.12-0.96-0.24c-0.22-0.07-0.44-0.15-0.66-0.25c-0.34-0.14-0.67-0.31-1-0.51
				c-0.22-0.15-0.44-0.29-0.66-0.44c-0.02,0.01-0.02,0-0.02,0c-0.44-0.32-0.89-0.68-1.35-1.1c-0.24-0.2-0.46-0.42-0.7-0.67
				c-0.29-0.31-0.6-0.63-0.91-0.98c-0.28-0.33-0.57-0.67-0.87-1.05c-0.02-0.01-0.05-0.03-0.06-0.07c-0.14-0.19-0.29-0.39-0.45-0.59
				c-0.15-0.21-0.3-0.42-0.47-0.64c-0.27-0.4-0.55-0.81-0.85-1.23c-0.03-0.05-0.07-0.1-0.09-0.16c-0.64-0.97-1.29-2.03-1.95-3.18
				c-1.31-2.32-2.68-5.02-4.08-8.13c-0.35-0.77-0.71-1.57-1.06-2.41c-0.18-0.41-0.35-0.83-0.54-1.26c-0.07-0.14-0.13-0.29-0.19-0.45
				c-0.27-0.67-0.56-1.35-0.85-2.06c-0.39-0.95-0.77-1.91-1.16-2.93c-0.74-1.92-1.5-3.94-2.26-6.07c-0.04-0.07-0.06-0.14-0.08-0.21
				c-0.16-0.48-0.33-0.95-0.5-1.42c-0.13-0.38-0.27-0.75-0.41-1.13c-0.01-0.05-0.03-0.08-0.04-0.12c-0.43-1.26-0.88-2.57-1.33-3.9
				v0.03c-0.04,1.88-0.1,3.69-0.18,5.43c-0.01,0.26-0.02,0.5-0.05,0.76c-0.09,2-0.22,3.9-0.38,5.7c-0.09,0.9-0.17,1.78-0.26,2.64
				c-0.28,2.59-0.63,4.98-1.03,7.18c-0.2,1.1-0.41,2.15-0.65,3.17c-0.07,0.33-0.14,0.66-0.24,0.99c-0.08,0.33-0.15,0.65-0.23,0.97
				c-0.07,0.32-0.17,0.63-0.26,0.94c-0.12,0.5-0.26,0.98-0.41,1.45c-0.13,0.41-0.26,0.8-0.39,1.19c-0.18,0.57-0.37,1.11-0.58,1.63
				c-0.1,0.26-0.19,0.52-0.31,0.78c-0.09,0.25-0.2,0.49-0.3,0.74c-0.1,0.25-0.2,0.5-0.32,0.72c-0.2,0.47-0.43,0.92-0.66,1.36
				c-0.1,0.22-0.22,0.43-0.35,0.65c-0.11,0.21-0.22,0.41-0.34,0.61c-0.1,0.2-0.22,0.4-0.35,0.59c-0.12,0.2-0.24,0.39-0.37,0.58
				c-0.13,0.17-0.24,0.36-0.36,0.54c-0.12,0.18-0.25,0.35-0.38,0.52c-0.25,0.34-0.51,0.66-0.78,0.97c-0.12,0.15-0.25,0.3-0.39,0.45
				c-0.26,0.29-0.53,0.57-0.81,0.83c-0.13,0.14-0.27,0.26-0.41,0.38c-0.15,0.13-0.29,0.25-0.43,0.37c-0.13,0.11-0.27,0.22-0.4,0.33
				c-0.29,0.21-0.59,0.42-0.9,0.62c-0.14,0.11-0.28,0.19-0.43,0.27c-0.3,0.18-0.6,0.34-0.91,0.5c-0.15,0.09-0.31,0.16-0.46,0.22
				c-0.46,0.2-0.92,0.39-1.4,0.54c-0.29,0.1-0.57,0.17-0.87,0.24c-0.03,0.01-0.06,0.02-0.09,0.02c-0.13,0.04-0.25,0.06-0.38,0.09
				c-0.03,0.01-0.07,0.02-0.1,0.02c-0.24,0.05-0.48,0.09-0.71,0.13h-0.05c-0.29,0.05-0.59,0.08-0.88,0.11
				c-0.12,0.01-0.23,0.02-0.35,0.02c-1.47,0.09-2.99-0.02-4.54-0.31c-0.8-0.14-1.6-0.33-2.4-0.56c-0.29-0.09-0.58-0.18-0.88-0.27
				c-0.2-0.08-0.41-0.13-0.61-0.22c-0.16-0.04-0.34-0.1-0.51-0.17c-0.8-0.29-1.6-0.62-2.42-0.97c-0.01,0-0.01,0-0.01,0
				c-0.57-0.27-1.16-0.54-1.77-0.84c-0.01,0.01-0.01,0.01-0.01,0c-0.88-0.43-1.77-0.91-2.66-1.4c-0.02,0-0.02,0-0.02,0
				c-0.59-0.34-1.18-0.69-1.77-1.03c-0.01,0-0.01,0-0.01,0l-1.77-1.1h-0.01c-0.58-0.38-1.17-0.76-1.74-1.14
				c-0.59-0.39-1.18-0.79-1.76-1.19c-0.6-0.43-1.19-0.85-1.78-1.26c-0.26-0.2-0.52-0.39-0.79-0.58c0,0,0,0-0.01,0
				c-0.56-0.41-1.13-0.83-1.68-1.24c-0.54-0.4-1.08-0.81-1.63-1.23c0.14,0.25,0.31,0.49,0.46,0.75c0.17,0.26,0.33,0.53,0.5,0.8
				c0.56,0.94,1.13,1.96,1.68,3.02c7.06,13.23,14.22,35.46,18.82,51.18l2.19,7.22H389.4c4.6-15.72,13.32-45.18,20.36-58.41
				c0.73-1.37,1.45-2.65,2.18-3.81c0.16-0.26,0.32-0.52,0.49-0.77C411.75,873.77,411.07,874.29,410.39,874.79z M359.43,885.34
				l3.01,11.52l-6.64,6.27l-3.66-8.37L359.43,885.34z M312.27,872.28l7.54,15.37l-7.54,10.72l-7.55-10.72L312.27,872.28z
				 M265.11,885.34l7.28,9.42l-3.66,8.37l-6.64-6.27L265.11,885.34z"/>
			<path class="st2" d="M364.47,841.51c-26.2,77.69-37.94,33.15-52.21-30.34c0,0.01-0.01,0.03-0.01,0.04c0-0.01-0.01-0.03-0.01-0.04
				c-14.27,63.49-26.01,108.03-52.21,30.34c-1.17,62.83-28.41,46.63-47.95,31.75c1.24,1.9,2.42,3.89,3.56,5.93
				c17.83,14.2,44.67,22.78,45.82-26.53c21.68,64.59,40.89,28.41,50.7-27.35c0.03-0.13,0.06-0.25,0.09-0.38
				c0.03,0.13,0.06,0.25,0.09,0.38c9.82,55.76,29.02,91.94,50.7,27.35c1.15,49.31,27.99,40.73,45.82,26.53
				c1.14-2.04,2.32-4.03,3.56-5.93C392.89,888.13,365.64,904.34,364.47,841.51z"/>
		</g>
		<g>
			<path class="st0" d="M316.23,812.53c0,2.2-1.78,3.98-3.98,3.98c-2.2,0-3.98-1.78-3.98-3.98c0-2.2,1.78-3.98,3.98-3.98
				C314.45,808.55,316.23,810.33,316.23,812.53z"/>
			<g>
				<g>
					<path class="st0" d="M264.23,843.01c0,2.2-1.78,3.98-3.98,3.98s-3.98-1.78-3.98-3.98c0-2.2,1.78-3.98,3.98-3.98
						S264.23,840.81,264.23,843.01z"/>
					<path class="st0" d="M290.37,840.82c0,2.2-1.78,3.98-3.98,3.98s-3.98-1.78-3.98-3.98c0-2.2,1.78-3.98,3.98-3.98
						S290.37,838.62,290.37,840.82z"/>
					<path class="st0" d="M235.14,855.37c0,2.2-1.78,3.98-3.98,3.98c-2.2,0-3.98-1.78-3.98-3.98c0-2.2,1.78-3.98,3.98-3.98
						C233.35,851.39,235.14,853.17,235.14,855.37z"/>
					<path class="st0" d="M216.7,874.43c0,2.2-1.78,3.98-3.98,3.98s-3.98-1.78-3.98-3.98c0-2.2,1.78-3.98,3.98-3.98
						S216.7,872.24,216.7,874.43z"/>
				</g>
				<g>
					<path class="st0" d="M360.3,843.01c0,2.2,1.78,3.98,3.98,3.98s3.98-1.78,3.98-3.98c0-2.2-1.78-3.98-3.98-3.98
						S360.3,840.81,360.3,843.01z"/>
					<path class="st0" d="M334.16,840.82c0,2.2,1.78,3.98,3.98,3.98s3.98-1.78,3.98-3.98c0-2.2-1.78-3.98-3.98-3.98
						S334.16,838.62,334.16,840.82z"/>
					<path class="st0" d="M389.39,855.37c0,2.2,1.78,3.98,3.98,3.98c2.2,0,3.98-1.78,3.98-3.98c0-2.2-1.78-3.98-3.98-3.98
						C391.18,851.39,389.39,853.17,389.39,855.37z"/>
					<path class="st0" d="M407.83,874.43c0,2.2,1.78,3.98,3.98,3.98s3.98-1.78,3.98-3.98c0-2.2-1.78-3.98-3.98-3.98
						S407.83,872.24,407.83,874.43z"/>
				</g>
			</g>
		</g>
	</g>
</g>
<polygon class="st3" points="134.79,941.25 371.99,917.7 400.11,838.01 427.69,838.01 392.99,941.25 "/>
<polygon class="st1" points="235.77,936.25 389.4,936.25 420.73,843.01 403.65,843.01 375.65,922.36 "/>
<polygon class="st0" points="389.88,839.82 417.27,825.33 431.76,852.72 "/>
<g>
	<g>
		<g>
			<path class="st1" d="M-504.45,155.02c-2.73,3.87-6.2,5.82-10.38,5.82c-0.63,0-1.28-0.04-1.95-0.13
				c-0.99-7.3-3.24-18.03-8.3-31.42C-515.35,141.71-509.96,150.25-504.45,155.02z"/>
			<path class="st1" d="M-461.46,147.04v0.01c-2.82,6.02-5.76,9.74-8.79,9.74c-2.1,0-5.03-1.81-8.87-7.99
				c4.27-7.91,7.68-19.73,10.92-34.1C-466.9,124.49-464.76,137.03-461.46,147.04z"/>
			<path class="st1" d="M-405.83,148.78c-3.84,6.21-6.77,8.02-8.88,8.02c-3.03,0-5.96-3.71-8.78-9.72
				c3.32-10.01,5.46-22.57,6.76-32.38C-413.48,129.05-410.09,140.87-405.83,148.78z"/>
			<path class="st1" d="M-359.86,129.29c-5.06,13.39-7.3,24.12-8.3,31.42c-0.66,0.08-1.31,0.13-1.96,0.13
				c-4.18,0-7.64-1.95-10.38-5.81C-374.97,150.26-369.59,141.72-359.86,129.29z"/>
		</g>
		<g>
			<path class="st1" d="M-344.34,150.9c-0.43,0.32-0.87,0.64-1.3,0.96l-0.78,0.57c-0.02,0.01-0.05,0.03-0.07,0.05
				c-2.9,2.07-5.9,4.06-8.91,5.74c-0.46,0.26-0.92,0.5-1.39,0.75c-0.09,0.05-0.19,0.1-0.28,0.14c-0.45,0.24-0.9,0.46-1.33,0.68
				c-1.55,0.73-3.08,1.36-4.59,1.87c-0.2,0.06-0.4,0.13-0.6,0.19c-0.19,0.06-0.38,0.12-0.56,0.17c-0.29,0.08-0.58,0.16-0.87,0.23
				c-1.44,0.37-2.87,0.59-4.26,0.66c-0.27,0.01-0.55,0.03-0.83,0.03c-0.16,0-0.34,0-0.5-0.02c-0.16,0-0.31-0.01-0.48-0.02
				c-0.23-0.01-0.47-0.04-0.69-0.06c-0.12,0-0.23-0.02-0.34-0.03c-1.08-0.15-2.13-0.41-3.14-0.79c-0.2-0.08-0.4-0.16-0.6-0.25
				c-0.34-0.16-0.67-0.32-1.01-0.5c-0.15-0.08-0.29-0.16-0.44-0.26c-0.89-0.53-1.75-1.19-2.57-1.97c-0.28-0.27-0.55-0.54-0.82-0.83
				c-0.93-1.03-1.8-2.23-2.63-3.65c-0.47-0.8-0.92-1.67-1.34-2.62c-0.76-1.65-1.44-3.51-2.06-5.6c-0.09-0.3-0.17-0.6-0.26-0.91
				c-0.86-3.09-1.56-6.64-2.1-10.73c-0.09-0.68-0.17-1.37-0.26-2.09c-0.03-0.31-0.05-0.62-0.09-0.93c-0.06-0.53-0.11-1.08-0.16-1.62
				c-0.03-0.33-0.06-0.67-0.09-1.01c-0.07-0.75-0.13-1.51-0.17-2.29c-0.09-1.19-0.16-2.42-0.22-3.68c-0.08-1.75-0.14-3.57-0.17-5.46
				c-0.61,1.78-1.19,3.5-1.77,5.15c-0.03,0.05-0.05,0.11-0.06,0.15c-0.4,1.15-0.8,2.26-1.22,3.34c-0.48,1.34-0.98,2.63-1.45,3.87
				c-0.58,1.51-1.14,2.95-1.72,4.32c-0.27,0.67-0.54,1.33-0.83,1.98c-0.01,0.02-0.02,0.04-0.02,0.06c-0.27,0.65-0.54,1.28-0.82,1.9
				c-0.5,1.14-1.01,2.24-1.5,3.28c-0.32,0.66-0.63,1.31-0.93,1.92c-0.13,0.27-0.26,0.53-0.41,0.79c-0.66,1.3-1.31,2.5-1.94,3.61
				c-0.12,0.22-0.25,0.44-0.38,0.65c-1.01,1.72-2,3.22-2.97,4.48c-0.23,0.31-0.46,0.59-0.69,0.86c-1.32,1.63-2.6,2.82-3.84,3.62
				c-0.12,0.09-0.23,0.16-0.34,0.22c-0.59,0.36-1.2,0.63-1.77,0.8c-0.18,0.06-0.35,0.1-0.52,0.14c-0.03,0.01-0.05,0.01-0.07,0.01
				c-0.19,0.05-0.38,0.07-0.57,0.1h-0.03c-0.2,0.02-0.39,0.03-0.59,0.03c-0.17,0-0.35-0.01-0.51-0.02c-0.17-0.01-0.33-0.04-0.5-0.07
				c-0.29-0.05-0.6-0.13-0.89-0.24c-0.13-0.03-0.25-0.08-0.38-0.14c-1.24-0.51-2.44-1.44-3.61-2.76c-0.32-0.34-0.63-0.72-0.93-1.12
				c-0.16-0.2-0.31-0.41-0.46-0.63c-0.31-0.42-0.62-0.88-0.91-1.37c-0.3-0.47-0.6-0.97-0.9-1.5c-0.29-0.52-0.59-1.08-0.88-1.66
				c-0.59-1.15-1.17-2.39-1.75-3.72c-0.29-0.68-0.58-1.36-0.86-2.07s-0.56-1.44-0.85-2.19c-0.28-0.76-0.56-1.52-0.84-2.31
				s-0.56-1.61-0.83-2.45c-1.95-5.8-3.84-12.53-5.74-19.93c-0.37-1.5-0.76-3.02-1.14-4.57c-0.19-0.75-0.37-1.53-0.55-2.3
				c-0.25-0.97-0.49-1.95-0.72-2.96c-0.55-2.27-1.09-4.6-1.64-6.96c-0.14-0.59-0.27-1.18-0.4-1.77c-0.44-1.88-0.88-3.78-1.31-5.72
				c-0.39-1.69-0.78-3.43-1.17-5.16c0,0.01-0.01,0.02-0.01,0.04c-0.39,1.73-0.78,3.44-1.16,5.14c-4.67,20.58-9.12,38.79-13.95,50.92
				c-0.05,0.07-0.07,0.14-0.1,0.22c-1.84,4.61-3.75,8.34-5.75,10.95c-0.77,1.01-1.55,1.85-2.35,2.51c-0.32,0.28-0.64,0.52-0.97,0.72
				c-0.15,0.11-0.29,0.2-0.45,0.27c-0.04,0.04-0.09,0.06-0.14,0.08c-0.29,0.17-0.59,0.3-0.88,0.41c-0.82,0.29-1.64,0.41-2.49,0.34
				c-0.16-0.01-0.32-0.04-0.47-0.06c-0.32-0.05-0.64-0.12-0.96-0.24c-0.22-0.07-0.44-0.15-0.66-0.25c-0.34-0.14-0.67-0.31-1-0.51
				c-0.22-0.15-0.44-0.29-0.66-0.44c-0.02,0.01-0.02,0-0.02,0c-0.44-0.32-0.89-0.68-1.35-1.1c-0.24-0.2-0.46-0.42-0.7-0.67
				c-0.29-0.31-0.6-0.63-0.91-0.98c-0.28-0.33-0.57-0.67-0.87-1.05c-0.02-0.01-0.05-0.03-0.06-0.07c-0.14-0.19-0.29-0.39-0.45-0.59
				c-0.15-0.21-0.3-0.42-0.47-0.64c-0.27-0.4-0.55-0.81-0.85-1.23c-0.03-0.05-0.07-0.1-0.09-0.16c-0.64-0.97-1.29-2.03-1.95-3.18
				c-1.31-2.32-2.68-5.02-4.08-8.13c-0.35-0.77-0.71-1.57-1.06-2.41c-0.18-0.41-0.35-0.83-0.54-1.26c-0.07-0.14-0.13-0.29-0.19-0.45
				c-0.27-0.67-0.56-1.35-0.85-2.06c-0.39-0.95-0.77-1.91-1.16-2.93c-0.74-1.92-1.5-3.94-2.26-6.07c-0.04-0.07-0.06-0.14-0.08-0.21
				c-0.16-0.48-0.33-0.95-0.5-1.42c-0.13-0.38-0.27-0.75-0.41-1.13c-0.01-0.05-0.03-0.08-0.04-0.12c-0.43-1.26-0.88-2.57-1.33-3.9
				v0.03c-0.04,1.88-0.1,3.69-0.18,5.43c-0.01,0.26-0.02,0.5-0.05,0.76c-0.09,2-0.22,3.9-0.38,5.7c-0.09,0.9-0.17,1.78-0.26,2.64
				c-0.28,2.59-0.63,4.98-1.03,7.18c-0.2,1.1-0.41,2.15-0.65,3.17c-0.07,0.33-0.14,0.66-0.24,0.99c-0.08,0.33-0.15,0.65-0.23,0.97
				c-0.07,0.32-0.17,0.63-0.26,0.94c-0.12,0.5-0.26,0.98-0.41,1.45c-0.13,0.41-0.26,0.8-0.39,1.19c-0.18,0.57-0.37,1.11-0.58,1.63
				c-0.1,0.26-0.19,0.52-0.31,0.78c-0.09,0.25-0.2,0.49-0.3,0.74c-0.1,0.25-0.2,0.5-0.32,0.72c-0.2,0.47-0.43,0.92-0.66,1.36
				c-0.1,0.22-0.22,0.43-0.35,0.65c-0.11,0.21-0.22,0.41-0.34,0.61c-0.1,0.2-0.22,0.4-0.35,0.59c-0.12,0.2-0.24,0.39-0.37,0.58
				c-0.13,0.17-0.24,0.36-0.36,0.54c-0.12,0.18-0.25,0.35-0.38,0.52c-0.25,0.34-0.51,0.66-0.78,0.97c-0.12,0.15-0.25,0.3-0.39,0.45
				c-0.26,0.29-0.53,0.57-0.81,0.83c-0.13,0.14-0.27,0.26-0.41,0.38c-0.15,0.13-0.29,0.25-0.43,0.37c-0.13,0.11-0.27,0.22-0.4,0.33
				c-0.29,0.21-0.59,0.42-0.9,0.62c-0.14,0.11-0.28,0.19-0.43,0.27c-0.3,0.18-0.6,0.34-0.91,0.5c-0.15,0.09-0.31,0.16-0.46,0.22
				c-0.46,0.2-0.92,0.39-1.4,0.54c-0.29,0.1-0.57,0.17-0.87,0.24c-0.03,0.01-0.06,0.02-0.09,0.02c-0.13,0.04-0.25,0.06-0.38,0.09
				c-0.03,0.01-0.07,0.02-0.1,0.02c-0.24,0.05-0.48,0.09-0.71,0.13h-0.05c-0.29,0.05-0.59,0.08-0.88,0.11
				c-0.12,0.01-0.23,0.02-0.35,0.02c-1.47,0.09-2.99-0.02-4.54-0.31c-0.8-0.14-1.6-0.33-2.4-0.56c-0.29-0.09-0.58-0.18-0.88-0.27
				c-0.2-0.08-0.41-0.13-0.61-0.22c-0.16-0.04-0.34-0.1-0.51-0.17c-0.8-0.29-1.6-0.62-2.42-0.97c-0.01,0-0.01,0-0.01,0
				c-0.57-0.27-1.16-0.54-1.77-0.84c-0.01,0.01-0.01,0.01-0.01,0c-0.88-0.43-1.77-0.91-2.66-1.4c-0.02,0-0.02,0-0.02,0
				c-0.59-0.34-1.18-0.69-1.77-1.03c-0.01,0-0.01,0-0.01,0l-1.77-1.1h-0.01c-0.58-0.38-1.17-0.76-1.74-1.14
				c-0.59-0.39-1.18-0.79-1.76-1.19c-0.6-0.43-1.19-0.85-1.78-1.26c-0.26-0.2-0.52-0.39-0.79-0.58c0,0,0,0-0.01,0
				c-0.56-0.41-1.13-0.83-1.68-1.24c-0.54-0.4-1.08-0.81-1.63-1.23c0.14,0.25,0.31,0.49,0.46,0.75c0.17,0.26,0.33,0.53,0.5,0.8
				c0.56,0.94,1.13,1.96,1.68,3.02c7.06,13.23,14.22,35.46,18.82,51.18l2.19,7.22h153.63c4.6-15.72,13.32-45.18,20.36-58.41
				c0.73-1.37,1.45-2.65,2.18-3.81c0.16-0.26,0.32-0.52,0.49-0.77C-342.98,149.88-343.66,150.4-344.34,150.9z M-395.3,161.45
				l3.01,11.52l-6.64,6.27l-3.66-8.37L-395.3,161.45z M-442.46,148.39l7.54,15.37l-7.54,10.72l-7.55-10.72L-442.46,148.39z
				 M-489.62,161.45l7.28,9.42l-3.66,8.37l-6.64-6.27L-489.62,161.45z"/>
			<path class="st2" d="M-390.26,117.62c-26.2,77.69-37.94,33.15-52.21-30.34c0,0.01-0.01,0.03-0.01,0.04
				c0-0.01-0.01-0.03-0.01-0.04c-14.27,63.49-26.01,108.03-52.21,30.34c-1.17,62.83-28.41,46.63-47.95,31.75
				c1.24,1.9,2.42,3.89,3.56,5.93c17.83,14.2,44.67,22.78,45.82-26.53c21.68,64.59,40.89,28.41,50.7-27.35
				c0.03-0.13,0.06-0.25,0.09-0.38c0.03,0.13,0.06,0.25,0.09,0.38c9.82,55.76,29.02,91.94,50.7,27.35
				c1.15,49.31,27.99,40.73,45.82,26.53c1.14-2.04,2.32-4.03,3.56-5.93C-361.84,164.24-389.09,180.45-390.26,117.62z"/>
		</g>
		<g>
			<path class="st2" d="M-438.5,88.64c0,2.2-1.78,3.98-3.98,3.98c-2.2,0-3.98-1.78-3.98-3.98s1.78-3.98,3.98-3.98
				C-440.28,84.66-438.5,86.44-438.5,88.64z"/>
			<g>
				<g>
					<path class="st2" d="M-490.5,119.12c0,2.2-1.78,3.98-3.98,3.98s-3.98-1.78-3.98-3.98s1.78-3.98,3.98-3.98
						S-490.5,116.92-490.5,119.12z"/>
					<path class="st2" d="M-464.36,116.93c0,2.2-1.78,3.98-3.98,3.98s-3.98-1.78-3.98-3.98c0-2.2,1.78-3.98,3.98-3.98
						S-464.36,114.73-464.36,116.93z"/>
					<path class="st2" d="M-519.59,131.48c0,2.2-1.78,3.98-3.98,3.98c-2.2,0-3.98-1.78-3.98-3.98c0-2.2,1.78-3.98,3.98-3.98
						C-521.38,127.5-519.59,129.28-519.59,131.48z"/>
					<path class="st2" d="M-538.03,150.54c0,2.2-1.78,3.98-3.98,3.98c-2.2,0-3.98-1.78-3.98-3.98s1.78-3.98,3.98-3.98
						C-539.81,146.56-538.03,148.35-538.03,150.54z"/>
				</g>
				<g>
					<path class="st2" d="M-394.43,119.12c0,2.2,1.78,3.98,3.98,3.98s3.98-1.78,3.98-3.98s-1.78-3.98-3.98-3.98
						S-394.43,116.92-394.43,119.12z"/>
					<path class="st2" d="M-420.57,116.93c0,2.2,1.78,3.98,3.98,3.98s3.98-1.78,3.98-3.98c0-2.2-1.78-3.98-3.98-3.98
						S-420.57,114.73-420.57,116.93z"/>
					<path class="st2" d="M-365.34,131.48c0,2.2,1.78,3.98,3.98,3.98c2.2,0,3.98-1.78,3.98-3.98c0-2.2-1.78-3.98-3.98-3.98
						C-363.55,127.5-365.34,129.28-365.34,131.48z"/>
					<path class="st2" d="M-346.9,150.54c0,2.2,1.78,3.98,3.98,3.98s3.98-1.78,3.98-3.98s-1.78-3.98-3.98-3.98
						S-346.9,148.35-346.9,150.54z"/>
				</g>
			</g>
		</g>
	</g>
</g>
<polygon class="st0" points="-518.96,212.36 -365.33,212.36 -334,119.12 -351.08,119.12 -379.08,198.47 "/>
<polygon class="st0" points="-364.85,115.93 -337.46,101.44 -322.97,128.83 "/>
</svg>
